<?xml version="1.0" standalone="no"?>
<!DOCTYPE svg PUBLIC "-//W3C//DTD SVG 1.1//EN" "http://www.w3.org/Graphics/SVG/1.1/DTD/svg11.dtd" >
<svg xmlns="http://www.w3.org/2000/svg">
<metadata>Generated by IcoMoon</metadata>
<defs>
<font id="lc" horiz-adv-x="1024">
<font-face units-per-em="1024" ascent="960" descent="-64" />
<missing-glyph horiz-adv-x="1024" />
<glyph unicode="&#x20;" horiz-adv-x="512" d="" />
<glyph unicode="&#xe900;" glyph-name="location" d="M515.338 735.59c-72.166 0-130.906-58.739-130.906-130.906s58.739-130.906 130.906-130.906 130.906 58.739 130.906 130.906-58.739 130.906-130.906 130.906zM515.338 511.181c-51.558 0-93.504 41.946-93.504 93.504s41.946 93.504 93.504 93.504 93.504-41.946 93.504-93.504-41.946-93.504-93.504-93.504zM765.611 854.958c-67.734 67.734-157.797 105.042-253.583 105.042-95.804 0-185.849-37.308-253.583-105.042-125.351-125.333-140.929-361.15-33.736-504.024l287.319-414.933 286.889 414.354c107.623 143.454 92.045 379.271-33.306 504.604zM768.584 372.215l-256.556-370.5-256.968 371.080c-97.225 129.634-83.293 342.599 29.846 455.72 60.665 60.665 141.322 94.084 227.121 94.084s166.456-33.418 227.14-94.084c113.14-113.121 127.072-326.086 29.416-456.3z" />
<glyph unicode="&#xe901;" glyph-name="notification" d="M935.638 96.298l-73.302 122.112c-33.792 56.362-51.67 120.874-51.67 186.624v106.966c0 164.65-134.016 298.666-298.666 298.666s-298.666-134.016-298.666-298.666v-106.966c0-65.75-17.878-130.262-51.67-186.624l-73.302-122.112c-3.968-6.57-4.054-14.806-0.298-21.462 3.798-6.698 10.922-10.838 18.602-10.838h810.666c7.68 0 14.806 4.138 18.602 10.838 3.756 6.658 3.672 14.892-0.296 21.462zM144.342 106.666l53.888 89.814c37.802 62.976 57.77 135.082 57.77 208.554v106.966c0 141.184 114.816 256 256 256s256-114.816 256-256v-106.966c0-73.472 19.968-145.578 57.728-208.554l53.93-89.814h-735.316zM512 960c-47.062 0-85.334-38.272-85.334-85.334v-85.334c0-11.774 9.558-21.332 21.334-21.332s21.334 9.558 21.334 21.334v85.332c0 23.552 19.114 42.666 42.666 42.666s42.666-19.114 42.666-42.666v-85.334c0-11.774 9.558-21.332 21.334-21.332s21.334 9.558 21.334 21.334v85.332c0 47.062-38.272 85.334-85.334 85.334zM604.33 96.128c-6.016 10.154-19.030 13.482-29.226 7.638-10.198-5.974-13.61-19.072-7.638-29.226 5.546-9.43 8.576-20.736 8.576-31.872 0-35.286-28.714-64-64-64s-64 28.714-64 64c0 11.136 3.030 22.442 8.576 31.872 5.93 10.198 2.518 23.254-7.638 29.226-10.282 5.846-23.254 2.518-29.226-7.638-9.43-16.128-14.422-34.602-14.422-53.462 0.002-58.836 47.83-106.666 106.668-106.666s106.666 47.83 106.752 106.666c0 18.86-4.992 37.334-14.422 53.462z" />
<glyph unicode="&#xe902;" glyph-name="closure" horiz-adv-x="1208" d="M876.928 742.394c-60.228 0.001-109.052 48.825-109.052 109.053s48.825 109.053 109.053 109.053c60.228 0 109.053-48.825 109.053-109.053 0-0.176 0-0.352-0.001-0.527v0.027c-0.284-60.013-49-108.553-109.052-108.553 0 0-0.001 0-0.001 0v0zM876.928 935.488c-46.691 0-84.541-37.85-84.541-84.541s37.85-84.541 84.541-84.541c46.691 0 84.541 37.85 84.541 84.541v0c0 46.691-37.85 84.541-84.541 84.541v0zM481.235 426.239c-25.512 0-46.022 14.007-61.53 41.52-0.952 1.723-1.513 3.777-1.513 5.962 0 1.263 0.187 2.482 0.535 3.631l-0.023-0.089 67.533 227.111c0.315 0.352 0.507 0.819 0.507 1.332 0 0.060-0.003 0.118-0.008 0.177l0.001-0.008c9.004 22.011 34.017 34.017 64.532 31.515l177.086 34.517c27.513 10.005 52.025 6.003 73.036-12.506l237.616-104.551 70.534 133.065 2.501 3.001c20.51 20.010 47.523 26.513 68.533 16.008s30.015-32.516 26.513-59.529c-0.302-1.508-0.822-2.849-1.534-4.063l0.033 0.061-93.045-186.091c-16.508-35.017-58.028-23.011-71.535-19.009h-1.501l-138.067 62.531-11.005-25.012c-2.007-4.387-6.357-7.38-11.407-7.38-1.656 0-3.238 0.322-4.684 0.907l0.084-0.030c-4.482 1.968-7.556 6.367-7.556 11.485 0 1.817 0.388 3.544 1.085 5.102l-0.032-0.079 16.508 36.018c1.078 3.059 3.444 5.426 6.43 6.481l0.074 0.023c1.42 0.473 3.054 0.746 4.752 0.746s3.333-0.273 4.862-0.777l-0.11 0.031 148.072-67.033c31.515-9.004 38.019-1 42.021 7.003l92.545 184.090c1.501 16.008-3.001 27.513-13.006 32.516s-27.013 1.501-40.020-10.505l-75.037-141.069c-2.036-3.9-6.051-6.517-10.678-6.517-1.748 0-3.408 0.373-4.906 1.045l0.076-0.030-249.622 110.054-3.502 2.001c-14.507 13.507-30.015 16.508-50.525 9.004h-1.501l-180.088-35.017h-3.502c-20.010 2.001-36.018-4.002-41.020-16.008l-66.032-222.609c14.007-23.011 30.515-29.514 55.527-21.511l55.027 199.597c1.399 4.336 4.985 7.589 9.424 8.491l0.080 0.014 146.572 28.514c0.671 0.128 1.443 0.201 2.233 0.201 3.944 0 7.462-1.826 9.754-4.679l0.019-0.024c1.695-1.859 2.733-4.342 2.733-7.068 0-1.807-0.456-3.508-1.26-4.993l0.027 0.056-57.528-137.067c-1.737-4.628-6.125-7.861-11.268-7.861-6.631 0-12.006 5.375-12.006 12.006 0 1.953 0.467 3.798 1.294 5.428l-0.031-0.068 48.524 115.556-117.057-22.511-54.527-198.097c-1.103-3.871-3.851-6.946-7.419-8.472l-0.085-0.032c-9.612-3.991-20.768-6.368-32.462-6.503h-0.053zM373.182-64c-23.511 0-41.020 6.503-52.526 19.009s-19.009 42.021-11.005 77.538c0.65 2.878 2.262 5.304 4.472 6.982l0.030 0.022 214.105 156.576 72.035 246.12v1.501l8.504 19.51c1.772 4.559 6.125 7.731 11.219 7.731 1.926 0 3.746-0.453 5.359-1.259l-0.069 0.031c4.387-2.007 7.38-6.357 7.38-11.407 0-1.656-0.322-3.238-0.907-4.684l0.030 0.084-8.504-19.009-72.535-249.122c-0.936-2.607-2.485-4.801-4.48-6.485l-0.022-0.018-214.105-156.576c-4.502-24.512-2.501-41.52 6.503-51.025s24.512-13.006 48.023-10.505l209.602 148.573c17.509 11.506 27.013 22.511 28.514 31.515v1.501l65.532 219.107c1.727 5.294 6.62 9.052 12.391 9.052 0.393 0 0.782-0.017 1.165-0.052l-0.050 0.004 192.594-26.513c4.557-0.45 8.332-3.389 9.976-7.423l0.029-0.080c0.425-1.278 0.67-2.75 0.67-4.279 0-3.092-1.002-5.949-2.698-8.266l0.028 0.039-118.058-139.568c0.5-28.014 6.003-46.022 17.509-53.526s29.014-7.003 53.526 2.501l177.086 215.605q10.505 20.010 6.003 34.517c-3.502 11.506-15.007 21.511-33.016 30.015l-187.091 27.513c-3.797 0.665-6.906 3.113-8.474 6.433l-0.030 0.070c-1.004 1.628-1.599 3.601-1.599 5.712 0 1.743 0.405 3.392 1.127 4.857l-0.029-0.065 14.007 31.515c1.95 4.215 6.142 7.087 11.005 7.087 6.677 0 12.089-5.412 12.089-12.089 0-1.813-0.399-3.533-1.115-5.077l0.031 0.075-7.504-16.508 172.584-25.512 3.502-1c25.512-12.006 41.52-27.013 47.523-45.522s2.501-35.017-8.504-55.027l-1-1.501-179.588-219.107c-1.474-1.577-3.325-2.783-5.411-3.475l-0.092-0.026c-34.517-13.507-60.53-14.007-79.039-1s-28.014 38.519-28.014 78.038c-0.004 0.105-0.006 0.229-0.006 0.353 0 2.801 1.151 5.333 3.006 7.149l0.002 0.002 107.052 126.562-160.578 22.011-62.531-208.602c-3.001-16.508-15.508-31.515-39.019-47.023l-211.103-150.073c-1.579-0.973-3.434-1.676-5.418-1.99l-0.085-0.011zM427.709 460.256l-31.015 5.503-2.501 1c-8.504 2.001-129.063 32.016-358.175 16.508l-32.516-2.501 22.511 22.511 18.009 28.514-44.021 44.522 26.013 2.001c2.001 0 174.585 14.007 336.664-13.006l30.515-5.002-2.001-1c13.507-2.501 31.015-5.002 52.025-7.504l-3.001-24.512c-49.524 6.003-71.535 10.505-82.040 14.007-121.559 20.010-249.122 17.008-303.148 14.507l20.010-20.51-5.002-8.004-11.506-18.509c210.103 12.006 323.658-14.007 342.667-19.009h0.5l30.015-5.503zM547.267 449.751l-35.017 1 1.501 24.512c107.553-6.503 311.152 23.511 359.175 31.015v53.526c-71.035-15.508-281.137-42.521-338.165-40.020l1 24.012c59.529-2.501 301.147 29.514 345.669 43.521l15.508 5.002v-107.052l-10.005-1.501c-9.505-1.501-210.103-34.017-339.666-34.017zM448.219 544.297c-102.618 22.847-193.329 58.026-276.752 104.68l5.12-2.63-25.512 15.007 70.534 17.509c-1.501 3.502-3.502 7.003-5.002 11.005-12.006 27.513-14.007 31.515-7.504 38.519l6.503 6.503 8.004-5.002c71.535-40.52 156.576-70.534 252.623-89.544l-5.002-23.511c-86.128 16.050-162.916 42.429-234.092 78.313l4.98-2.276 7.504-17.008 6.503-13.507-39.519-9.505c68.181-35.299 147.324-64.398 230.359-83.251l6.756-1.29zM559.273 528.289c-0.096 0-0.21 0-0.324 0-8.877 0-17.627 0.545-26.218 1.604l1.029-0.103 3.001 24.012c22.011-2.501 50.024 0 77.538 2.001l37.518 3.001 17.008 45.022c-17.609-2.277-37.977-3.576-58.649-3.576-19.17 0-38.078 1.117-56.665 3.291l2.258-0.215 3.001 24.512c15.909-2.045 34.312-3.212 52.988-3.212 25.991 0 51.454 2.26 76.203 6.595l-2.629-0.381 22.011 4.502-38.519-100.549h-8.504l-44.021-3.001c-16.895-2.032-36.69-3.298-56.74-3.499l-0.288-0.002z" />
<glyph unicode="&#xe903;" glyph-name="tag" d="M1010.483 954.999c-6.673 6.673-17.46 6.673-24.133 0l-63.268-63.268h-397.376l-499.558-503.671c-11.367-11.367-17.63-26.505-17.63-42.583s6.264-31.216 17.63-42.583l349.298-349.298c11.725-11.725 27.103-17.596 42.514-17.596 15.48 0 30.96 5.922 42.822 17.767l486.433 499.575v414.256l63.268 63.268c6.673 6.673 6.673 17.46 0 24.133zM913.080 467.201l-476.603-489.471c-10.172-10.172-26.727-10.172-36.899 0l-349.298 349.298c-10.172 10.172-10.172 26.727 0.051 36.951l489.608 493.619h349.008l-82.486-82.486c-13.5 8.943-29.629 14.217-46.986 14.217-47.054 0-85.336-38.282-85.336-85.336s38.282-85.336 85.336-85.336 85.336 38.282 85.336 85.336c0 17.357-5.274 33.486-14.217 46.986l82.486 82.486v-366.263zM810.677 703.991c0-28.229-22.972-51.202-51.202-51.202s-51.202 22.972-51.202 51.202 22.972 51.202 51.202 51.202c7.885 0 15.258-1.946 21.931-5.137l-33.998-33.998c-6.673-6.673-6.673-17.46 0-24.133 3.328-3.328 7.697-5.001 12.067-5.001s8.738 1.673 12.067 5.001l33.998 33.998c3.209-6.673 5.137-14.046 5.137-21.931z" />
<glyph unicode="&#xe904;" glyph-name="down_chevron" d="M970.771 729.867l-458.773-457.277-458.77 457.277-53.229-53.402 511.999-510.332 512.001 510.332z" />
<glyph unicode="&#xe905;" glyph-name="chevron_bottom" d="M942.080 468.48c0-0.007 0-0.015 0-0.023 0-5.648-2.294-10.76-6-14.456v0l-368.64-368.64c-3.706-3.705-8.825-5.996-14.479-5.996s-10.773 2.291-14.479 5.996l-368.64 368.64c-3.557 3.679-5.749 8.697-5.749 14.228 0 11.311 9.169 20.48 20.48 20.48 5.53 0 10.549-2.192 14.233-5.755l354.155-354.155 354.161 354.161c3.706 3.705 8.825 5.996 14.479 5.996 11.309 0 20.477-9.167 20.48-20.475v0z" />
<glyph unicode="&#xe906;" glyph-name="chevron_left" d="M311.568 448.027l462.455 462.455c11.374 11.374 11.374 29.614 0 40.988s-29.614 11.374-40.988 0l-483.056-483.056c-11.374-11.374-11.374-29.614 0-40.988l483.056-482.842c5.58-5.58 13.090-8.584 20.387-8.584s14.807 2.79 20.387 8.584c11.374 11.374 11.374 29.614 0 40.988l-462.24 462.455z" />
<glyph unicode="&#xe907;" glyph-name="chevron_right" d="M774.115 468.413l-483.056 483.056c-11.374 11.374-29.614 11.374-40.988 0s-11.374-29.614 0-40.988l462.455-462.455-462.455-462.455c-11.374-11.374-11.374-29.614 0-40.988 5.58-5.58 13.090-8.584 20.387-8.584s14.807 2.79 20.387 8.584l483.056 483.056c11.374 11.159 11.374 29.614 0.215 40.773z" />
<glyph unicode="&#xe908;" glyph-name="plus" d="M984 488h-432v432c0 22.092-17.908 40-40 40s-40-17.908-40-40v-432h-432c-22.092 0-40-17.908-40-40s17.908-40 40-40h432v-432c0-22.092 17.908-40 40-40s40 17.908 40 40v432h432c22.092 0 40 17.908 40 40s-17.908 40-40 40z" />
<glyph unicode="&#xe909;" glyph-name="program_icon" d="M107.355 704c0.072 0 0.158 0 0.243 0 59.425 0 107.598 48.173 107.598 107.598s-48.173 107.598-107.598 107.598c-59.425 0-107.598-48.173-107.598-107.598v0c0 0 0 0 0 0 0-59.339 48.035-107.459 107.342-107.597h0.013zM107.355 887.135c41.718 0 75.537-33.819 75.537-75.537s-33.819-75.537-75.537-75.537c-41.718 0-75.537 33.819-75.537 75.537v0c0 41.718 33.819 75.537 75.537 75.537v0zM477.025 18.824l-77.966 270.087c-15.059 42.991-58.292 72.865-104.926 72.865h-111.97v89.139h155.932c34.072 0 61.693 27.621 61.693 61.693s-27.621 61.693-61.693 61.693h-92.053l-107.598 93.996c-2.795 2.393-6.446 3.858-10.438 3.886h-46.154c-47.605 0-81.852-37.89-81.852-90.353v-259.643c0-72.865 51.006-127.757 118.77-127.757h153.26c1.266 0.141 2.418 0.397 3.52 0.763l-0.12-0.035 65.093-214.224c4.372-13.844 15.545-25.989 31.332-34.247 12.43-6.474 27.126-10.321 42.708-10.444h0.039c0.129-0.001 0.282-0.001 0.435-0.001 6.23 0 12.274 0.798 18.035 2.297l-0.496-0.11c0.034 0 0.074-0.001 0.114-0.001 1.442 0 2.822 0.268 4.093 0.756l-0.078-0.026c16.357 5.233 29.448 16.662 36.758 31.458l0.161 0.36c4.069 8.24 6.45 17.94 6.45 28.195 0 7.020-1.116 13.78-3.179 20.112l0.129-0.459zM429.176-29.996l-3.643-0.486c-10.444-3.4-26.231-1.214-38.861 5.343-8.258 4.372-13.844 9.958-15.545 15.302l-82.338 270.573c-2.266 6.282-8.176 10.691-15.115 10.691-8.853 0-16.030-7.177-16.030-16.030 0-1.47 0.198-2.894 0.568-4.246l-0.026 0.112 7.772-25.017h-147.188c-50.277 0-86.953 40.319-86.953 95.696v259.643c0 29.146 15.545 58.535 50.034 58.535h40.076l107.355-94.239c2.882-2.391 6.611-3.853 10.68-3.886h98.132c0.806 0.077 1.744 0.121 2.691 0.121 16.499 0 29.875-13.375 29.875-29.875s-13.375-29.875-29.875-29.875c-0.947 0-1.885 0.044-2.809 0.13l0.118-0.009h-148.159l-67.522 57.806c-2.769 2.342-6.379 3.766-10.323 3.766-4.911 0-9.306-2.208-12.246-5.685l-0.019-0.024c-2.464-2.772-3.97-6.445-3.97-10.469 0-4.858 2.194-9.204 5.646-12.1l0.024-0.020 48.82-41.533v-128.486c0-0.001 0-0.001 0-0.002 0-8.768 7.039-15.892 15.775-16.028h128.013c33.275 0 64.121-21.131 74.565-50.52l77.723-269.602c5.343-16.759-2.429-33.518-17.245-39.59zM916.645 704c59.425 0 107.598 48.173 107.598 107.598s-48.173 107.598-107.598 107.598c-59.425 0-107.598-48.173-107.598-107.598v0c0-59.425 48.173-107.598 107.598-107.598v0zM916.645 887.135c41.718 0 75.537-33.819 75.537-75.537s-33.819-75.537-75.537-75.537c-41.718 0-75.537 33.819-75.537 75.537v0c0.138 41.662 33.874 75.399 75.524 75.537h0.013zM942.391 671.939h-46.391c-3.992-0.071-7.631-1.528-10.47-3.907l0.026 0.021-107.598-93.996h-92.053c-34.072 0-61.693-27.621-61.693-61.693s27.621-61.693 61.693-61.693h155.932v-89.139h-111.97c-46.634 0-89.867-29.875-105.169-73.837l-77.723-268.873c-1.97-5.948-3.107-12.796-3.107-19.909 0-10.34 2.402-20.119 6.678-28.809l-0.171 0.384c7.47-15.156 20.562-26.585 36.483-31.697l0.435-0.121 3.643-0.486c5.245-1.546 11.272-2.436 17.506-2.436 0.335 0 0.67 0.003 1.004 0.008l-0.050-0.001c15.622 0.094 30.323 3.945 43.273 10.693l-0.525-0.249c15.787 8.258 27.203 20.402 31.575 34.49l64.85 213.981c0.982-0.332 2.134-0.588 3.323-0.722l0.077-0.007h153.26c67.765 0 118.77 54.892 118.77 127.757v259.886c0 52.463-34.247 90.353-81.609 90.353zM992.182 321.943c0-55.378-36.433-95.696-86.953-95.696h-147.188l7.772 25.017c0.344 1.24 0.542 2.664 0.542 4.133 0 8.853-7.177 16.030-16.030 16.030-6.94 0-12.849-4.41-15.080-10.58l-0.035-0.112-82.095-270.33c-1.943-5.586-7.529-11.173-15.787-15.545-12.387-6.558-28.417-8.501-38.861-5.343l-3.157 0.486c-15.302 5.829-23.074 22.831-17.488 39.833l77.48 268.387c10.444 30.361 41.29 51.491 74.565 51.491h128c8.748 0.137 15.787 7.261 15.787 16.029 0 0.001 0 0.001 0 0.002v0 128.486l48.82 41.533c3.501 2.96 5.709 7.355 5.709 12.266 0 8.854-7.177 16.031-16.031 16.031-3.943 0-7.554-1.424-10.346-3.785l0.024 0.019-67.765-57.806h-148.159c-0.806-0.077-1.744-0.121-2.691-0.121-16.499 0-29.875 13.375-29.875 29.875s13.375 29.875 29.875 29.875c0.947 0 1.885-0.044 2.809-0.13l-0.118 0.009h98.125c4.076 0.033 7.805 1.495 10.715 3.909l-0.028-0.023 107.355 94.239h40.319c34.247 0 49.791-29.389 49.791-58.535zM823.135 482.49h-647.287c-7.965-1.014-14.061-7.75-14.061-15.909s6.096-14.895 13.981-15.901l0.080-0.008h647.287c0.591-0.077 1.275-0.121 1.969-0.121 8.853 0 16.030 7.177 16.030 16.030s-7.177 16.030-16.030 16.030c-0.694 0-1.378-0.044-2.049-0.13l0.080 0.008zM512 745.047c59.424 0 107.597 48.173 107.597 107.598s-48.173 107.598-107.598 107.598c-59.425 0-107.598-48.173-107.598-107.598 0-0.085 0-0.171 0-0.256v0.013c0 0 0 0 0 0 0-59.29 48.064-107.355 107.355-107.355 0.085 0 0.171 0 0.256 0h-0.013zM512 927.939c41.718 0 75.537-33.819 75.537-75.537s-33.819-75.537-75.537-75.537c-41.718 0-75.537 33.819-75.537 75.537v0c0 0.072 0 0.158 0 0.243 0 41.584 33.71 75.294 75.294 75.294 0.086 0 0.171 0 0.256 0h-0.013zM683.962 682.383l-76.751 37.404c-2.052 0.984-4.46 1.558-7.003 1.558-3.257 0-6.293-0.943-8.851-2.57l0.067 0.040c-47.362-30.846-111.97-30.846-159.332 0-2.491 1.587-5.528 2.53-8.784 2.53-2.543 0-4.951-0.575-7.103-1.601l0.1 0.043-77.966-38.376c-29.146-18.459-49.791-46.634-62.664-83.309h34.247c10.444 24.531 25.26 43.476 43.962 55.62l68.493 33.275c54.163-31.089 124.6-31.089 178.763 0l69.708-33.761c20.888-8.744 35.947-27.689 45.905-55.135h34.004c-12.63 42.505-35.218 71.165-66.793 84.281zM490.383 671.211c0.011 0.222 0.017 0.483 0.017 0.744 0 8.603-6.777 15.623-15.284 16.013l-0.035 0.001c-0.292 0.019-0.634 0.030-0.978 0.030-8.559 0-15.527-6.811-15.78-15.309l-0.001-0.023c-0.243-7.287-1.214-40.562 8.987-59.507-2.429-17.973-8.258-65.579-10.201-106.626h32.061c1.943 38.619 7.529 86.467 10.444 108.326 0.137 0.762 0.215 1.639 0.215 2.535 0 4.125-1.659 7.863-4.345 10.583l0.002-0.002c-3.643 5.101-5.829 28.417-5.101 43.233zM552.805 614.376q7.772 17.002 9.472 56.835c0.011 0.226 0.018 0.491 0.018 0.757 0 8.518-6.643 15.484-15.031 16l-0.045 0.002c-0.439 0.044-0.948 0.069-1.463 0.069-8.438 0-15.307-6.724-15.539-15.106v-0.021c-1.214-25.017-5.101-41.776-6.801-46.391-1.953-2.705-3.124-6.088-3.124-9.745 0-0.933 0.076-1.848 0.223-2.74l-0.013 0.097c3.4-21.617 10.444-69.222 13.359-107.598h32.061c-2.915 41.776-10.201 90.596-13.116 107.841z" />
<glyph unicode="&#xe90a;" glyph-name="add_user" d="M735.14 446.182c-19.678 9.354-39.756 17.412-60.186 24.162 66.166 49.664 109.046 128.746 109.046 217.656 0 149.98-122.018 272-272 272s-272-122.020-272-272c0-89.008 42.976-168.168 109.266-217.822-60.736-19.996-117.726-51.11-167.606-92.138-91.464-75.234-155.058-180.172-179.064-295.486-7.524-36.132 1.49-73.244 24.726-101.816 23.122-28.432 57.408-44.738 94.064-44.738h492.614c22.092 0 40 17.908 40 40s-17.908 40-40 40h-492.614c-17.076 0-27.378 9.532-31.998 15.212-7.978 9.81-11.066 22.58-8.472 35.038 41.51 199.39 217.382 345.042 420.48 349.954 3.518-0.136 7.052-0.204 10.604-0.204 3.586 0 7.156 0.070 10.708 0.208 62.24-1.46 122.1-15.664 178.088-42.28 19.954-9.48 43.814-0.998 53.298 18.956 9.484 19.952 1 43.814-18.954 53.298zM521.756 496.246c-3.246 0.058-6.498 0.088-9.756 0.088-3.228 0-6.456-0.032-9.68-0.092-101.39 5.058-182.32 89.134-182.32 191.758 0 105.87 86.13 192 192 192s192-86.13 192-192c0-102.598-80.89-186.658-182.244-191.754zM984 166h-110v110c0 22.092-17.908 40-40 40s-40-17.908-40-40v-110h-110c-22.092 0-40-17.908-40-40s17.908-40 40-40h110v-110c0-22.092 17.908-40 40-40s40 17.908 40 40v110h110c22.092 0 40 17.908 40 40s-17.908 40-40 40z" />
<glyph unicode="&#xe90b;" glyph-name="chevron_bottom_a" d="M368.64 550.4h409.6l-204.8-286.72-204.8 286.72z" />
<glyph unicode="&#xe90c;" glyph-name="career" d="M972.088 879.532c-1.491 4.996-5.184 9.039-10.026 10.972l-170.664 68.266c-8.749 3.507-18.683-0.745-22.191-9.493-0.811-2.022-1.227-4.183-1.225-6.361v-221.863h-102.398c-9.425 0-17.066-7.641-17.066-17.066v-204.797h-204.797c-9.425 0-17.066-7.641-17.066-17.066v-204.797h-221.863c-9.425 0-17.066-7.641-17.066-17.066v-307.195c0-9.425 7.641-17.066 17.066-17.066s17.066 7.641 17.066 17.066v290.128h221.863c9.425 0 17.066 7.641 17.066 17.066v204.797h204.797c9.425 0 17.066 7.641 17.066 17.066v204.797h238.929v-733.854c0-9.425 7.641-17.066 17.066-17.066s17.066 7.641 17.066 17.066v750.921c0 9.425-7.641 17.066-17.066 17.066h-136.531v89.703l158.495 47.547c9.032 2.692 14.171 12.198 11.477 21.231zM802.116 846.389v71.32l101.886-40.755-101.886-30.566zM68.261 21.332c-9.425 0-17.066-7.641-17.066-17.066v-51.199c0-9.425 7.641-17.066 17.066-17.066s17.066 7.641 17.066 17.066v51.199c0 9.425-7.639 17.066-17.066 17.066zM626.451 784.319l-51.199 51.199c-0.154 0.154-0.358 0.205-0.512 0.341-1.455 1.429-3.155 2.583-5.018 3.413-0.137 0-0.29 0-0.444 0.102-1.737 0.653-3.571 1.011-5.427 1.058-0.546 0-1.075 0-1.707-0.085-1.476-0.081-2.933-0.363-4.335-0.836-0.546-0.188-1.075-0.341-1.604-0.58-1.901-0.817-3.635-1.973-5.12-3.413l-51.199-51.199c-6.547-6.78-6.359-17.585 0.42-24.132 6.613-6.387 17.098-6.387 23.712 0l22.101 22.067v-146.532h-238.929c-9.425 0-17.066-7.641-17.066-17.066v-221.863h-221.863c-9.425 0-17.066-7.641-17.066-17.066v-307.195c0-9.425 7.641-17.066 17.066-17.066s17.066 7.641 17.066 17.066v290.128h221.863c9.425 0 17.066 7.641 17.066 17.066v221.863h238.929c9.425 0 17.066 7.641 17.066 17.066v163.598l22.067-22.067c6.78-6.549 17.583-6.361 24.132 0.418 6.389 6.613 6.389 17.101 0 23.714zM409.589 209.062h-136.531c-9.425 0-17.066-7.641-17.066-17.066s7.641-17.066 17.066-17.066h136.531c9.425 0 17.066 7.641 17.066 17.066s-7.639 17.066-17.066 17.066zM648.518 430.925h-136.531c-9.425 0-17.066-7.641-17.066-17.066s7.641-17.066 17.066-17.066h136.531c9.425 0 17.066 7.641 17.066 17.066s-7.639 17.066-17.066 17.066zM870.381 652.788h-136.531c-9.425 0-17.066-7.641-17.066-17.066s7.641-17.066 17.066-17.066h136.531c9.425 0 17.066 7.641 17.066 17.066s-7.639 17.066-17.066 17.066z" />
<glyph unicode="&#xe90d;" glyph-name="cross" d="M1011.886 947.884c-16.154 16.154-42.344 16.154-58.498 0l-941.272-941.27c-16.154-16.154-16.154-42.344 0-58.498 8.076-8.080 18.664-12.116 29.25-12.116s21.172 4.038 29.25 12.118l941.27 941.27c16.152 16.152 16.152 42.342 0 58.496zM1011.884 6.612l-941.272 941.27c-16.152 16.154-42.344 16.154-58.496 0-16.154-16.152-16.154-42.342 0-58.496l941.272-941.272c8.076-8.078 18.664-12.116 29.25-12.116s21.174 4.038 29.248 12.114c16.15 16.156 16.15 42.346-0.002 58.5z" />
<glyph unicode="&#xe90e;" glyph-name="diploma" horiz-adv-x="822" d="M664.9 801.653h-508.109c-13.617 0-24.511-9.726-24.511-21.398s10.894-21.787 24.511-21.787h508.109c13.617 0 24.511 9.726 24.511 21.787s-10.894 21.398-24.511 21.398zM664.9 701.277h-508.109c-13.617 0-24.511-9.726-24.511-21.787s10.894-21.398 24.511-21.398h508.109c13.617 0 24.511 9.726 24.511 21.398s-10.894 21.787-24.511 21.787zM421.739 557.714c13.228 0 24.122 9.726 24.122 21.398s-10.894 21.787-24.122 21.787h-264.948c-13.617 0-24.511-9.726-24.511-21.787s10.894-21.398 24.511-21.398zM749.714 960h-677.739c-39.751 0-71.976-32.225-71.976-71.976v0-880.049c0-39.751 32.225-71.976 71.976-71.976v0h677.739c39.751 0 71.976 32.225 71.976 71.976v0 880.049c0 39.751-32.225 71.976-71.976 71.976v0zM773.058 7.976c0-12.892-10.451-23.343-23.343-23.343v0h-677.739c-12.892 0-23.343 10.451-23.343 23.343v0 880.049c0 12.892 10.451 23.343 23.343 23.343v0h677.739c12.892 0 23.343-10.451 23.343-23.343v0zM292.182 315.331h100.766v-236.002h-100.766v236.002zM161.848 208.34h100.766v-129.167h-100.766v129.167zM422.517 264.365h101.155v-185.153h-101.155v185.153zM552.851 344.9h100.766v-265.843h-100.766v265.843zM469.982 353.848l-130.334 107.38-190.249-182.468 24.122-24.9 167.684 161.459 130.334-107.769 185.97 178.188-23.733 24.9-163.793-156.79z" />
<glyph unicode="&#xe90f;" glyph-name="download1" d="M994.662 459.844c-16.299 0-29.338-13.039-29.338-29.338v-266.866c0-72.584-59.11-131.477-131.477-131.477h-643.694c-72.584 0-131.477 59.11-131.477 131.477v271.212c0 16.299-13.039 29.338-29.338 29.338s-29.338-13.039-29.338-29.338v-271.212c0-104.964 85.406-190.153 190.153-190.153h643.694c104.964 0 190.153 85.406 190.153 190.153v266.866c0 16.081-13.039 29.338-29.338 29.338zM491.355 206.452c5.65-5.65 13.256-8.693 20.645-8.693s14.995 2.825 20.645 8.693l186.458 186.458c11.518 11.518 11.518 29.99 0 41.508s-29.99 11.518-41.508 0l-136.258-136.475v595.233c0 16.299-13.039 29.338-29.338 29.338s-29.338-13.039-29.338-29.338v-595.233l-136.475 136.475c-11.518 11.518-29.99 11.518-41.508 0s-11.518-29.99 0-41.508l186.676-186.458z" />
<glyph unicode="&#xe910;" glyph-name="eye2" d="M512 725c16.568 0 30 13.432 30 30v124c0 16.568-13.432 30-30 30s-30-13.432-30-30v-124c0-16.568 13.432-30 30-30zM842.924 605.5l87.682 87.68c11.716 11.716 11.716 30.712 0 42.426-11.714 11.716-30.71 11.716-42.426 0l-87.682-87.68c-11.716-11.716-11.716-30.712 0-42.426 11.714-11.718 30.712-11.712 42.426 0zM181.074 605.5c11.716-11.716 30.71-11.718 42.426 0 11.716 11.716 11.716 30.712 0 42.426l-87.682 87.68c-11.716 11.714-30.712 11.714-42.426 0-11.716-11.716-11.716-30.712 0-42.426l87.682-87.68zM512 517c-110.282 0-200-89.718-200-200s89.718-200 200-200 200 89.718 200 200-89.72 200-200 200zM512 177c-77.196 0-140 62.804-140 140s62.804 140 140 140c77.196 0 140-62.804 140-140s-62.806-140-140-140zM1016.972 336.294c-2.644 3.15-65.86 78.026-158.71 153.934-127.248 104.026-243.748 156.772-346.262 156.772s-219.014-52.746-346.262-156.774c-92.852-75.908-156.066-150.784-158.71-153.934-9.37-11.156-9.37-27.43 0-38.586 2.644-3.15 65.86-78.026 158.71-153.934 127.248-104.026 243.748-156.772 346.262-156.772s219.014 52.746 346.262 156.774c92.852 75.908 156.066 150.784 158.71 153.934 9.37 11.156 9.37 27.43 0 38.586zM820.286 190.228c-114.616-93.7-221.22-143.228-308.286-143.228-180.592 0-382.7 205.318-441.902 270.028 24.248 26.57 72.512 76.792 133.616 126.746 114.616 93.7 221.22 143.226 308.286 143.226 180.592 0 382.696-205.314 441.902-270.028-24.25-26.572-72.518-76.796-133.616-126.744zM511.998 377c-22.092 0-40-17.908-40-40 0-10.128 3.794-19.35 10-26.398v-23.602c0-16.568 13.432-30 30-30s30 13.432 30 30v23.604c6.206 7.048 10 16.268 10 26.396 0 22.092-17.908 40-40 40z" />
<glyph unicode="&#xe911;" glyph-name="feedback" d="M1023.996 564.364c-0.007 7.196-3.319 13.983-9.017 18.386-0.022 0.022-56.897 44.099-130.615 101.98v89.088c0 51.34-41.749 93.092-93.092 93.092h-135.546c-33.161 27.083-61.94 51.026-81.159 68.068-18.489 16.355-40.527 25.019-62.557 25.021-22.049 0.002-44.092-8.675-62.555-25.023-19.22-17.042-47.993-40.985-81.179-68.068h-135.548c-51.343 0-93.092-41.749-93.092-93.090v-89.086c-73.732-57.877-130.591-101.961-130.615-101.983-5.699-4.403-9.011-11.191-9.017-18.386h-0.004v-535.272c0-51.34 41.749-93.092 93.092-93.092h837.819c51.34 0 93.092 41.749 93.092 93.092v535.272h-0.007zM884.364 625.582c32.551-25.486 60.179-47.025 78.386-61.196-18.179-14.114-45.853-35.64-78.386-61.080v122.276zM480.319 900.137c19.955 17.681 43.385 17.705 63.386-0.022 10.475-9.264 23.684-20.522 38.858-33.205h-141.107c15.177 12.683 28.388 23.95 38.863 33.227zM186.181 773.819c0 25.658 20.887 46.545 46.545 46.545h558.546c25.66 0 46.547-20.887 46.547-46.545v-306.989c-104.175-81.82-234.855-185.754-294.114-238.215-5.614-4.977-17.319-13.342-32.433-13.342-11.047 0-21.705 4.477-31.704 13.342-59.62 52.789-189.646 156.384-293.387 238.006v307.198zM139.636 625.582v-122.424c-32.555 25.497-60.229 47.068-78.41 61.204 18.194 14.175 45.836 35.716 78.41 61.22zM977.455 29.090c0-25.658-20.887-46.545-46.545-46.545h-837.819c-25.658 0-46.545 20.887-46.545 46.545v487.757c97.069-75.556 321.646-251.773 402.16-323.097 18.5-16.364 40.137-25.023 62.568-25.023 22.591 0 45.068 8.887 63.295 25.023 83.673 74.095 312.705 253.021 402.886 323.112v-487.772zM465.456 610.909c0-12.854-10.42-23.273-23.273-23.273s-23.273 10.42-23.273 23.273c0 12.854 10.42 23.273 23.273 23.273s23.273-10.42 23.273-23.273zM605.093 610.909c0-12.854-10.42-23.273-23.273-23.273s-23.273 10.42-23.273 23.273c0 12.854 10.42 23.273 23.273 23.273s23.273-10.42 23.273-23.273zM625.91 507.41c5.681 11.363 1.113 25.045-10.183 30.886-11.273 5.932-25.25 1.409-31.296-9.772-0.751-1.385-18.932-33.977-72.432-33.977-53.090 0-71.409 32.114-72.41 33.956-5.819 11.295-19.615 15.772-31.091 10.137-11.5-5.749-16.159-19.728-10.409-31.228 1.204-2.433 30.659-59.409 113.908-59.409s112.708 56.976 113.913 59.409z" />
<glyph unicode="&#xe912;" glyph-name="filter2" d="M960.318 868.38h-896.636c-35.114 0-63.682-28.566-63.682-63.68v-74.944c0-35.114 28.568-63.682 63.682-63.682h29.814l329.114-329.114v-288.112c0-8.586 5.172-16.326 13.104-19.612 2.626-1.086 5.384-1.616 8.118-1.616 5.526 0 10.956 2.156 15.016 6.218l137.118 137.12c3.98 3.982 6.218 9.38 6.218 15.010v150.996l329.108 329.11h29.028c35.114 0 63.682 28.568 63.682 63.682v74.944c-0.002 35.114-28.57 63.68-63.684 63.68zM565.936 360.758c-4.192-4.192-6.256-9.7-6.208-15.194v-150.808l-94.664-94.664v245.596c0.014 5.454-2.054 10.91-6.214 15.072l-305.314 305.314h717.714l-305.314-305.316zM981.546 729.756c0-11.704-9.522-21.228-21.228-21.228h-896.636c-11.704 0-21.228 9.522-21.228 21.228v74.944c0 11.704 9.522 21.228 21.228 21.228h896.638c11.704 0 21.228-9.522 21.228-21.228v-74.944z" />
<glyph unicode="&#xe913;" glyph-name="xl_icon" d="M990.996 841.846h-360.842v-117.524h119.375v-79.99h-119.375v-78.178h118.154v-78.769h-118.154v-78.769h118.154v-78.769h-118.154v-78.769h118.154v-78.769h-118.154v-118.154h360.842c18.156 0 33.004 15.399 33.004 34.265v719.163c0 18.865-14.848 34.265-33.004 34.265zM945.231 172.308h-157.538v78.769h157.538v-78.769zM945.231 329.846h-157.538v78.769h157.538v-78.769zM945.231 487.385h-157.538v78.769h157.538v-78.769zM945.231 644.923h-157.538v78.769h157.538v-78.769zM0 846.218v-796.475l590.769-113.743v1024l-590.769-113.782zM373.681 247.926l-68.726 129.93c-2.599 4.844-5.278 13.745-8.074 26.703h-1.063c-1.3-6.105-4.372-15.399-9.216-27.845l-68.962-128.788h-107.087l127.134 199.444-116.303 199.483h109.332l57.029-119.611c4.45-9.452 8.428-20.677 11.973-33.634h1.103c2.245 7.798 6.42 19.377 12.524 34.777l63.409 118.508h100.116l-119.611-197.79 122.959-201.137-106.535-0.039z" />
<glyph unicode="&#xe914;" glyph-name="interview" d="M968.148 346.318c12.454 12.436 20.172 29.62 20.172 48.574 0 18.336-7.144 35.578-20.116 48.554-12.96 12.958-30.196 20.096-48.532 20.096h-44.574v66.34h37.466c11.090 0 20.078 8.99 20.078 20.078v123.382c0 11.090-8.99 20.078-20.078 20.078h-17.576c30.91 28.33 49.742 68.93 49.742 113.162 0 84.596-68.822 153.418-153.418 153.418-84.594 0-153.42-68.822-153.42-153.42 0-44.232 18.832-84.832 49.74-113.162h-17.554c-11.090 0-20.078-8.99-20.078-20.078v-123.382c0-9.952 7.248-18.192 16.75-19.78l-225.948-93.142h-385.044c-11.090 0-20.078-8.99-20.078-20.078v-460.88c0-11.090 8.99-20.078 20.078-20.078h389c11.090 0 20.078 8.99 20.078 20.078v78.648h242.708v-14.958c0-46.188 37.576-83.768 83.768-83.768 22.378 0 43.414 8.712 59.222 24.522 15.842 15.812 24.566 36.854 24.566 59.246v15.496c33.876 4.182 60.196 33.13 60.196 68.13 0 13.038-3.63 25.52-10.386 36.324 21.916 11.48 36.91 34.434 36.91 60.836 0 13.062-3.632 25.548-10.384 36.33 21.904 11.482 36.888 34.432 36.888 60.83 0 18.338-7.144 35.58-20.1 48.536-0.028 0.022-0.052 0.044-0.076 0.068zM424.678-23.844h-348.842v420.724h348.842v-420.724zM892.486 570.036h-202.33v83.226h96c1.958-0.084 3.766-0.1 5.154-0.1 1.37 0 3.158 0.016 5.094 0.1h96.082v-83.226zM834.942 529.88v-66.34h-87.242v66.34h87.242zM678.048 806.58c0 62.452 50.808 113.262 113.262 113.262s113.262-50.81 113.262-113.262c0-51.892-35.072-97.030-85.336-109.772-7.632-1.956-15.548-3.090-23.534-3.39h-8.786c-7.928 0.296-15.856 1.434-23.58 3.4-50.214 12.734-85.288 57.868-85.288 109.762zM834.942 19.768c0-11.652-4.538-22.6-12.792-30.838-8.236-8.236-19.188-12.772-30.838-12.772-24.046 0-43.61 19.564-43.61 43.61v14.958h87.24v-14.958zM815.546 326.224h104.126c7.61 0 14.756-2.962 20.136-8.356 5.39-5.388 8.354-12.544 8.354-20.156 0-15.71-12.782-28.492-28.492-28.492h-104.126c-11.090 0-20.078-8.99-20.078-20.078s8.99-20.078 20.078-20.078h77.604c7.612 0 14.768-2.968 20.172-8.37 5.378-5.364 8.338-12.516 8.338-20.14 0-15.71-12.79-28.492-28.512-28.492h-77.604c-11.090 0-20.078-8.99-20.078-20.078 0-11.090 8.99-20.078 20.078-20.078h51.1c7.612 0 14.77-2.968 20.14-8.338 5.386-5.398 8.35-12.562 8.35-20.172 0-15.722-12.782-28.512-28.492-28.512h-401.804v328.634l242.708 100.050v-60.104c0-11.090 8.99-20.078 20.078-20.078h192.050c7.61 0 14.762-2.962 20.136-8.334 5.388-5.39 8.354-12.546 8.354-20.158 0-15.722-12.782-28.512-28.492-28.512h-104.126c-11.090 0-20.078-8.99-20.078-20.078s8.99-20.080 20.080-20.080zM166.852 105.784c-31.166 0-56.52-25.356-56.52-56.52 0-31.156 25.356-56.5 56.52-56.5s56.52 25.348 56.52 56.5c0 31.164-25.354 56.52-56.52 56.52zM166.852 32.918c-9.024 0-16.364 7.332-16.364 16.344 0 9.024 7.34 16.364 16.364 16.364s16.364-7.34 16.364-16.364c0-9.010-7.34-16.344-16.364-16.344zM333.664 105.784c-31.166 0-56.52-25.356-56.52-56.52 0-31.156 25.356-56.5 56.52-56.5 31.166 0 56.52 25.348 56.52 56.5 0 31.164-25.354 56.52-56.52 56.52zM333.664 32.918c-9.024 0-16.364 7.332-16.364 16.344 0 9.024 7.34 16.364 16.364 16.364s16.364-7.34 16.364-16.364c0-9.010-7.342-16.344-16.364-16.344zM273.488 350.954h-123.14c-11.090 0-20.078-8.99-20.078-20.078s8.99-20.078 20.078-20.078h123.14c11.090 0 20.078 8.99 20.078 20.078s-8.988 20.078-20.078 20.078zM331.374 350.954c-25.838 0-25.882-40.156 0-40.156 25.84 0 25.882 40.156 0 40.156z" />
<glyph unicode="&#xe915;" glyph-name="leadership" d="M712.314 140.8h-153.6v136.533c0 47.127-38.206 85.333-85.333 85.333h-102.4v93.696l231.765 165.547c3.755 2.658 6.278 6.72 6.997 11.264 0.681 4.529-0.489 9.141-3.243 12.8l-51.2 68.267c-5.517 7.334-15.846 8.994-23.381 3.755l-174.933-121.003c30.933 58.278 8.764 130.601-49.515 161.532-58.278 30.933-130.601 8.764-161.532-49.515-24.873-46.859-15.863-104.506 22.118-141.542h-18.944c-4.815-0.011-9.404-2.057-12.629-5.632l-110.251-122.539c-30.27-33.82-28.77-85.414 3.413-117.419l90.283-90.795c3.548-3.552 8.48-5.363 13.483-4.949 5.067 0.39 9.696 3.017 12.629 7.168l20.139 28.501v-308.736c0-9.425 7.642-17.067 17.067-17.067h102.4c9.425 0 17.067 7.642 17.067 17.067v273.067h119.467v-85.333h-51.2c-9.425 0-17.067-7.642-17.067-17.067v-170.667c0-9.425 7.642-17.067 17.067-17.067h341.333c9.425 0 17.067 7.642 17.067 17.067v170.667c0 9.425-7.639 17.067-17.067 17.067zM166.18 652.8c0 47.127 38.206 85.333 85.333 85.333s85.333-38.206 85.333-85.333-38.206-85.333-85.333-85.333-85.333 38.206-85.333 85.333zM292.132 533.333l-23.552-47.104-23.552 47.104h47.104zM166.18 350.549l-27.307 29.184 27.307 27.307v-56.491zM285.647 260.267c-9.425 0-17.067-7.642-17.067-17.067v-273.067h-68.267v477.867c-0.034 6.891-4.209 13.084-10.581 15.701-6.355 2.673-13.694 1.259-18.603-3.584l-68.267-68.267c-6.505-6.637-6.505-17.257 0-23.893l55.808-58.197-28.843-40.277-76.459 76.117c-19.497 19.294-20.324 50.526-1.877 70.827l105.301 116.907h50.005l46.592-93.013c4.299-8.388 14.581-11.706 22.972-7.407 3.185 1.632 5.777 4.222 7.407 7.407l49.323 98.475 204.8 141.824 30.891-41.131-224.768-160.597c-4.476-3.185-7.142-8.331-7.168-13.824v-119.467c0-9.425 7.642-17.067 17.067-17.067h119.467c28.277 0 51.2-22.923 51.2-51.2v-136.533h-68.267v102.4c0 9.425-7.642 17.067-17.067 17.067h-153.6zM695.247-29.867h-307.2v136.533h307.2v-136.533zM1002.447 823.467c-65.98 0-119.467 53.487-119.467 119.467 0 9.425-7.642 17.067-17.067 17.067s-17.067-7.642-17.067-17.067c0-65.98-53.487-119.467-119.467-119.467-9.425 0-17.067-7.642-17.067-17.067s7.642-17.067 17.067-17.067c65.98 0 119.467-53.487 119.467-119.467 0-9.425 7.642-17.067 17.067-17.067s17.067 7.642 17.067 17.067c0 65.98 53.487 119.467 119.467 119.467 9.425 0 17.067 7.642 17.067 17.067s-7.639 17.067-17.067 17.067zM865.914 740.181c-14.714 28.373-37.843 51.503-66.219 66.219 28.373 14.716 51.503 37.845 66.219 66.219 14.716-28.373 37.845-51.503 66.219-66.219-28.373-14.716-51.503-37.845-66.219-66.219zM531.541 495.955l46.517 34.109 20.183-27.525-46.517-34.109-20.183 27.525zM616.988 558.456l170.613 125.198 20.193-27.518-170.613-125.198-20.193 27.518zM617.443 701.182l102.378 68.256 18.934-28.399-102.378-68.256-18.934 28.399z" />
<glyph unicode="&#xe916;" glyph-name="locked" d="M727.579 546.807v204.782c0 114.922-100.729 208.411-224.561 208.411s-224.561-93.489-224.561-208.411v-204.782h-161.684v-610.807h790.456v610.807h-179.649zM314.386 751.589c0 95.106 84.615 172.481 188.632 172.481s188.632-77.375 188.632-172.481v-204.782h-377.263v204.782zM871.298-28.070h-718.596v71.86h718.596v-71.86zM152.702 79.719v431.158h718.596v-431.158h-718.596zM512 403.088c-39.631 0-71.86-32.229-71.86-71.86v-107.789c0-39.631 32.229-71.86 71.86-71.86s71.86 32.229 71.86 71.86v107.789c0 39.631-32.229 71.86-71.86 71.86zM547.93 223.439c0-19.815-16.115-35.93-35.93-35.93s-35.93 16.115-35.93 35.93v107.789c0 19.815 16.115 35.93 35.93 35.93s35.93-16.115 35.93-35.93v-107.789z" />
<glyph unicode="&#xe917;" glyph-name="login" d="M456.974 321.544c-15.622-15.622-15.622-40.948 0-56.568 15.62-15.62 40.948-15.622 56.57 0l154.74 154.74c15.578 15.578 15.548 41.020 0 56.568l-154.74 154.74c-15.622 15.622-40.95 15.622-56.57 0s-15.622-40.948 0-56.568l86.458-86.456h-503.432c-22.092 0-40-17.908-40-40s17.908-40 40-40h503.432l-86.458-86.456zM867.086 944.5c-7.578 9.778-19.25 15.5-31.62 15.5h-495.466c-22.092 0-40-17.908-40-40s17.908-40 40-40h475.438c87.354-121.072 128.562-278.9 128.562-432 0-153.030-41.178-310.886-128.562-432h-475.438c-22.092 0-40-17.908-40-40s17.908-40 40-40h495.466c12.37 0 24.044 5.722 31.62 15.5 106.28 137.158 156.914 318.748 156.914 496.5 0 177.732-50.628 359.334-156.914 496.5z" />
<glyph unicode="&#xe918;" glyph-name="search2" d="M362.682 960c-199.978 0-362.666-162.688-362.666-362.666s162.688-362.666 362.666-362.666 362.666 162.688 362.666 362.666-162.686 362.666-362.666 362.666zM362.682 277.334c-176.47 0-320 143.53-320 320s143.53 320 320 320 320-143.53 320-320-143.53-320-320-320zM1017.744-27.606l-398.634 398.636c-8.32 8.32-21.846 8.32-30.166 0s-8.32-21.846 0-30.166l398.634-398.634c4.182-4.138 9.642-6.23 15.104-6.23s10.922 2.090 15.062 6.23c8.32 8.32 8.32 21.844 0 30.164z" />
<glyph unicode="&#xe919;" glyph-name="mail2" d="M829.086 249.751c-4.061 0-8.123 1.486-11.293 4.491l-189.994 178.239c-6.637 6.208-6.967 16.675-0.726 23.312 6.241 6.703 16.642 7 23.345 0.726l189.994-178.239c6.637-6.208 6.967-16.675 0.726-23.312-3.269-3.467-7.627-5.217-12.052-5.217zM194.881 249.751c-4.392 0-8.783 1.75-12.052 5.217-6.241 6.637-5.91 17.104 0.726 23.312l190.060 178.239c6.67 6.208 17.137 5.944 23.345-0.726 6.241-6.637 5.91-17.104-0.726-23.312l-190.060-178.239c-3.17-3.005-7.231-4.491-11.293-4.491zM941.451 84.026h-858.903c-45.501 0-82.549 37.015-82.549 82.549v562.883c0 45.534 37.048 82.549 82.549 82.549h858.903c45.501 0 82.549-37.015 82.549-82.549v-562.883c0-45.534-37.048-82.549-82.549-82.549zM82.549 778.987c-27.307 0-49.529-22.222-49.529-49.529v-562.883c0-27.307 22.222-49.529 49.529-49.529h858.903c27.307 0 49.529 22.222 49.529 49.529v562.883c0 27.307-22.222 49.529-49.529 49.529h-858.903zM512 365.055c-21.958 0-43.916 7.297-60.624 21.859l-423.97 369.851c-6.868 5.977-7.594 16.411-1.618 23.312 6.043 6.868 16.444 7.495 23.312 1.585l423.97-369.818c21.099-18.392 56.76-18.392 77.827 0l423.442 369.224c6.835 5.977 17.236 5.316 23.312-1.585 5.977-6.901 5.283-17.302-1.585-23.312l-423.442-369.224c-16.741-14.595-38.666-21.892-60.624-21.892z" />
<glyph unicode="&#xe91a;" glyph-name="menu" d="M38.642 699.17h946.717c21.33 0 38.642 17.311 38.642 38.642s-17.311 38.642-38.642 38.642h-946.717c-21.33 0-38.642-17.311-38.642-38.642s17.311-38.642 38.642-38.642zM38.642 409.358h946.717c21.33 0 38.642 17.311 38.642 38.642s-17.311 38.642-38.642 38.642h-946.717c-21.33 0-38.642-17.311-38.642-38.642s17.311-38.642 38.642-38.642zM38.642 119.547h946.717c21.33 0 38.642 17.311 38.642 38.642s-17.311 38.642-38.642 38.642h-946.717c-21.33 0-38.642-17.311-38.642-38.642s17.311-38.642 38.642-38.642z" />
<glyph unicode="&#xe91b;" glyph-name="open_folder" d="M1017.711 344.661l-180.951-342.465c-8.853-17.028-33.948-35.039-53.327-35.039l-725.655-0.133c-15.33 0-30.028 6.077-40.861 16.918-10.832 10.843-16.918 25.525-16.918 40.861l0.117 563.479c0 31.866 25.833 57.723 57.702 57.754l53.056 0.050v-49.223h-35.495c-6.947 0-13.62-2.757-18.536-7.673-4.911-4.916-7.673-11.584-7.673-18.536l0.052-528.218c0-14.489 11.741-26.209 26.214-26.209h36.352l171.492 346.915c9.689 19.379 27.997 35.041 47.349 35.041h419.989l0.143 139.61c27.423-2.543 49.067-25.29 49.067-53.363v-86.249h192.622c22.748-0.233 41.902-22.727 25.259-53.519zM144.334 190.857c-1.567 172.682 0 690.741 0 690.741 0 26.138 21.257 47.38 47.369 47.38h379.351c6.077 0 11.874-2.543 15.98-7.015l122.642-133.25c3.676-4.013 5.737-9.266 5.737-14.708v-345.193h-39.788v315.386c0 5.457-4.431 9.889-9.894 9.889h-93.87c-10.986 0-19.92 8.918-19.92 19.884v105.325c0 5.458-4.431 9.889-9.894 9.889h-350.32c-4.185 0-7.592-3.405-7.592-7.587v-647.307l-30.446-61.597c0.002 0.010-9.198 0.684-9.355 18.163zM591.771 793.86h59.096l-59.096 64.237v-64.237zM613.323 713.563h-366.634c-13.508 0-24.473-10.976-24.473-24.484 0-13.498 10.976-24.478 24.473-24.478h366.645c13.508 0 24.506 10.989 24.506 24.478-0.022 13.498-11.017 24.484-24.516 24.484zM637.817 546.513c0 13.498-10.984 24.463-24.494 24.463h-366.634c-13.508 0-24.473-10.986-24.473-24.463 0-13.498 10.976-24.463 24.473-24.463h366.645c13.489-0.002 24.484 10.965 24.484 24.463zM222.2 402.98c0-13.496 10.981-24.463 24.478-24.463h8.791c15.474 43.127 53.831 48.926 53.831 48.926h-62.622c-13.477 0-24.478-10.965-24.478-24.463z" />
<glyph unicode="&#xe91c;" glyph-name="paper_plane" d="M1020.181 825.368c-3.717 4.569-9.479 6.7-15.224 6.018-1.313-0.068-2.54-0.29-3.819-0.665l-988.556-268.872c-7.263-1.978-12.377-8.49-12.582-16.009-0.188-7.518 4.586-14.287 11.729-16.639l361.718-118.521-32.358-258.83c-0.852-6.819 2.472-13.485 8.422-16.895 2.643-1.517 5.575-2.267 8.49-2.267 3.665 0 7.331 1.176 10.365 3.512l132.381 101.37 116.049-165.796c3.205-4.586 8.422-7.28 13.963-7.28 0.375 0 0.767 0.017 1.159 0.034 5.967 0.409 11.269 3.904 13.997 9.24l376.141 733.085c3.137 6.001 2.387 13.264-1.875 18.515zM901.779 768.358l-512.034-327.126-313.3 102.649 825.334 224.477zM379.977 188.028l23.561 188.437 77.656-110.934-101.217-77.502zM628.543 114.498l-212.254 303.224 547.256 349.63-335.003-652.855z" />
<glyph unicode="&#xe91d;" glyph-name="pdf" d="M899.531 744.836l-205.453 205.453c-6.162 6.162-14.707 9.71-23.446 9.71h-512.388c-20.939 0-43.485-16.172-43.485-51.659v-937.031c0-14.777 14.866-29.184 32.45-33.721 0.883-0.23 1.73-0.565 2.648-0.742 2.754-0.547 5.561-0.847 8.386-0.847h707.513c2.825 0 5.632 0.3 8.386 0.847 0.918 0.177 1.766 0.512 2.648 0.742 17.585 4.537 32.45 18.944 32.45 33.721v741.906c0 13.542-1.624 23.534-9.71 31.62zM846.301 748.138h-148.921v148.921l148.921-148.921zM158.243-28.69c-1.254 0-2.383 0.459-3.496 0.865-2.754 1.306-4.679 4.061-4.679 7.309v256.653h723.862v-256.653c0-3.249-1.924-5.985-4.679-7.309-1.112-0.406-2.242-0.865-3.496-0.865h-707.513zM150.069 271.448v636.893c0 3.831 0.583 16.349 8.174 16.349h504.85c-0.583-2.225-1.024-4.52-1.024-6.903v-204.959h204.959c2.383 0 4.661 0.441 6.886 1.024 0-0.265 0.018-0.371 0.018-0.636v-441.768h-723.862zM389.155 170.037c-5.879 4.82-12.518 8.457-19.915 10.858-7.398 2.419-14.883 3.619-22.44 3.619h-51.165v-177.894h28.972v64.212h21.486c9.322 0 17.867 1.359 25.582 4.096s14.318 6.603 19.791 11.582c5.473 4.979 9.728 11.14 12.8 18.467 3.054 7.327 4.59 15.484 4.59 24.505 0 8.527-1.818 16.207-5.438 23.058s-8.386 12.659-14.265 17.496zM378.174 111.263c-1.783-4.908-4.096-8.722-6.991-11.458s-6.073-4.714-9.534-5.914c-3.46-1.201-6.974-1.818-10.505-1.818h-26.553v70.479h21.716c7.398 0 13.347-1.165 17.867-3.496 4.502-2.33 7.998-5.226 10.505-8.686 2.489-3.46 4.131-7.080 4.943-10.858 0.794-3.778 1.201-7.115 1.201-10.010 0-7.256-0.883-13.33-2.648-18.238zM564.153 158.455c-7.486 7.874-16.896 14.212-28.248 18.944s-24.505 7.115-39.459 7.115h-53.583v-177.894h67.337c2.242 0 5.703 0.282 10.381 0.847 4.661 0.565 9.816 1.836 15.448 3.866 5.632 2.013 11.458 5.032 17.496 9.057s11.458 9.534 16.296 16.543 8.81 15.695 11.953 26.077 4.714 22.899 4.714 37.535c0 10.628-1.854 20.974-5.544 31.020-3.725 10.028-9.304 18.997-16.79 26.889zM543.038 46.698c-8.686-12.553-22.846-18.82-42.478-18.82h-28.725v134.691h16.896c13.842 0 25.106-1.818 33.792-5.438s15.572-8.369 20.639-14.248 8.474-12.429 10.258-19.668c1.766-7.239 2.648-14.566 2.648-21.963 0-23.817-4.343-42.019-13.030-54.554zM628.489 6.621h29.449v80.137h74.346v19.791h-74.346v56.002h81.814v21.963h-111.263zM678.453 554.62c-16.225 0-36.14-2.119-59.286-6.321-32.309 34.286-66.030 84.356-89.83 133.508 23.605 99.381 11.794 113.452 6.585 120.090-5.544 7.062-13.365 18.52-22.263 18.52-3.725 0-13.895-1.695-17.938-3.037-10.169-3.39-15.642-11.229-20.021-21.451-12.482-29.184 4.643-78.936 22.263-117.283-15.060-59.904-40.324-131.602-66.878-189.793-66.913-30.649-102.453-60.751-105.666-89.476-1.165-10.452 1.306-25.794 19.686-39.583 5.032-3.761 10.929-5.756 17.073-5.756v0c15.448 0 31.055 11.829 49.117 37.199 13.171 18.503 27.313 43.732 42.072 75.052 47.281 20.674 105.772 39.353 155.86 49.823 27.895-26.783 52.877-40.342 74.346-40.342 15.819 0 29.378 7.274 39.194 21.027 10.222 14.318 12.553 27.136 6.886 38.135-6.797 13.224-23.552 19.686-51.2 19.686zM362.567 383.841c-8.263 6.338-7.786 10.611-7.609 12.217 1.095 9.816 16.472 27.242 54.201 48.446-28.601-52.824-43.961-59.833-46.592-60.663zM507.339 788.533c0.759 0.247 18.45-19.438 1.695-56.779-25.176 25.759-3.425 56.196-1.695 56.779zM470.846 505.591c17.92 42.708 34.586 89.865 47.21 133.544 19.827-35.628 43.644-70.197 67.478-97.88-37.676-8.845-77.789-21.327-114.688-35.663zM698.615 514.048c-5.438-7.609-17.231-7.786-21.363-7.786-9.41 0-12.924 5.597-27.313 16.666 11.864 1.518 23.058 1.907 31.974 1.907 15.695 0 18.573-2.313 20.745-3.478-0.388-1.254-1.412-3.619-4.043-7.309z" />
<glyph unicode="&#xe91e;" glyph-name="pdf_file" d="M282.954 529.414c-9.949-0.146-16.326-1.138-20.092-2.11v-131.826c3.758-0.964 9.871-1.073 15.395-1.183 40.678-1.084 67.689 21.595 67.689 70.748 0.292 42.747-24.295 64.961-62.992 64.371zM624.623 24.413c1.341-0.073 2.698-0.193 4.074-0.193h310.018c36.256 0 65.761 29.506 65.761 65.763v718.672c0 36.252-29.506 65.761-65.761 65.761h-310.018c-1.367 0-2.733-0.134-4.074-0.197v85.78l-605.099-80.753v-860.404l605.099-82.844v88.413zM938.715 61.78h-310.018c-1.387 0-2.733 0.221-4.074 0.421v281.974c64.598 11.164 154.303 19.614 231.891 1.385l9.182-17.806c37.037-70.029 76.596-69.57 91.88-66.12 3.506 0.788 5.395 1.668 5.395 1.668l2.056 1.093c0.696 0.44 1.239 1 1.87 1.477v-175.907c0-15.534-12.641-28.185-28.182-28.185zM650.917 377.597c48.549 59.21 87.779 114.486 113.045 151.921l0.092-0.207 0.275 0.423c19.835-41.816 52.533-106.495 75.046-150.642l-0.073 0.019 0.771-1.479c-64.018 10.936-132.762 6.945-189.303-0.872l0.826 0.964-0.68-0.127zM765.119 653.882c1.945 3.431 4.789 4.339 9.89 4.114 0.092-0.009 10.221-0.673 14-7.611 2.293-4.132 5.616-17.237-12.256-49.196h-0.019c0 0-2.312-3.845-6.66-10.785-10.019 35.182-9.358 55.727-4.955 63.477zM894.403 334.027c18.366-7.065 34.862-15.771 49.302-26.063 4.147-5.891 7.982-14.368 7.286-18.368-0.037-0.193-0.073-0.386-0.183-0.578-5.929-1.093-29.507-1.827-56.405 45.008zM628.697 836.831h310.018c15.541 0 28.182-12.648 28.182-28.183v-484.711c-0.88 1.258-1.641 2.293-2.091 2.853l-1.193 1.543-1.559 1.155c-24.055 17.561-53.046 31.092-86.257 40.238-23.678 46.238-72.715 142.612-93.329 187.744 11.936 18.385 18.349 29.102 18.643 29.593 18.596 33.152 22.66 59.032 12.376 77.289-9.321 16.524-27.889 21.487-37.376 21.802-15.339 0.698-28.422-5.863-35.523-18.358-10.826-19.078-8.587-52.496 6.715-99.262 0.68-2.161 1.771-4.93 3.212-8.417-24.514-37.077-68.99-101.207-125.898-170.087v446.386c1.348 0.198 2.686 0.414 4.081 0.414zM174.513 453.816c-14.307-14.193-35.339-20.386-59.615-20.165-5.339 0.054-10.165 0.384-13.893 0.99v-69.063l-39.739 1.101v188.56c12.275 2.556 29.647 4.678 54.439 5.28 25.334 0.619 43.683-4.179 56.056-14.4 11.931-9.706 19.981-26.023 19.981-45.384 0-19.38-6.124-35.812-17.228-46.919zM361.077 382.908c-21.463-17.512-53.724-25.146-92.44-24.064-22.808 0.652-38.808 2.57-49.592 4.349v195.691c15.922 3.032 36.861 5.024 59.211 5.569 37.71 0.922 62.552-5.496 82.238-20.073 21.376-15.623 34.941-41.056 34.941-77.844 0-39.876-14.476-67.132-34.358-83.628zM426.665 566.485l133.684 3.192v-40.198l-85.032-1.233v-48.523l79.38 0.197v-39.812l-79.38 0.55v-85.413l-48.665 1.341v209.897h0.014zM117.857 527.467c-8.298-0.129-13.904-1.068-16.846-1.982v-57.023c3.445-0.866 7.721-1.157 13.629-1.157 21.835-0.017 35.426 11.894 35.426 31.913 0.002 18.011-11.7 28.578-32.209 28.248z" />
<glyph unicode="&#xe91f;" glyph-name="play_button" d="M777.609 462.097l-375.467 256c-5.239 3.55-11.998 3.942-17.596 0.99-5.581-2.953-9.079-8.755-9.079-15.087v-512c0-6.332 3.499-12.134 9.097-15.087 2.492-1.331 5.239-1.98 7.97-1.98 3.362 0 6.724 1.007 9.609 2.97l375.467 256c4.659 3.174 7.458 8.448 7.458 14.097s-2.799 10.923-7.458 14.097zM409.6 224.307v447.386l328.107-223.693-328.107-223.693zM512 960c-282.317 0-512-229.683-512-512s229.683-512 512-512 512 229.683 512 512-229.683 512-512 512zM512-29.867c-263.492 0-477.867 214.374-477.867 477.867s214.374 477.867 477.867 477.867 477.867-214.374 477.867-477.867-214.374-477.867-477.867-477.867z" />
<glyph unicode="&#xe920;" glyph-name="help_round" d="M543.65 154.198c0-17.673-14.327-32-32-32s-32 14.327-32 32c0 17.673 14.327 32 32 32s32-14.327 32-32zM504.531 745.922c-100.298 0-162.593-62.298-162.593-162.594 0-8.843 7.155-16 16-16 8.843 0 16 7.157 16 16 0 83 47.593 130.594 130.593 130.594 126.016 0 144.827-90.75 144.827-144.843 0-52.61-43.234-112.469-100.562-139.219-64.891-30.266-53.547-136.453-53.032-140.954 0.923-8.171 7.845-14.187 15.875-14.187 0.61 0 1.219 0.032 1.829 0.109 8.781 1 15.093 8.923 14.078 17.704-0.094 0.875-8.766 88.016 34.781 108.328 68.968 32.187 119.030 102.938 119.030 168.219 0 110.734-66.109 176.843-176.827 176.843zM512 960c-282.77 0-512-229.23-512-512s229.23-512 512-512 512 229.23 512 512-229.23 512-512 512zM512-32c-264.674 0-480 215.326-480 480 0 264.672 215.326 480 480 480 264.672 0 480-215.328 480-480 0-264.674-215.328-480-480-480z" />
<glyph unicode="&#xe921;" glyph-name="rubbish_bin" d="M219.97-14.618c1.156-27.6 23.868-49.382 51.488-49.382h481.089c27.62 0 50.332 21.782 51.488 49.382l34.356 725.268h-652.778l34.356-725.268zM620.831 530.506c0 11.557 9.371 20.93 20.932 20.93h33.479c11.554 0 20.932-9.371 20.932-20.93v-414.362c0-11.559-9.371-20.93-20.932-20.93h-33.479c-11.557 0-20.932 9.366-20.932 20.93v414.362zM474.334 530.506c0 11.557 9.371 20.93 20.93 20.93h33.479c11.554 0 20.93-9.371 20.93-20.93v-414.362c0-11.559-9.368-20.93-20.93-20.93h-33.479c-11.557 0-20.93 9.366-20.93 20.93v414.362zM327.832 530.506c0 11.557 9.371 20.93 20.93 20.93h33.481c11.557 0 20.93-9.371 20.93-20.93v-414.362c0-11.559-9.371-20.93-20.93-20.93h-33.481c-11.557 0-20.93 9.366-20.93 20.93v414.362zM861.266 907.249h-221.943v41.959c0 5.959-4.831 10.792-10.792 10.792h-233.063c-5.959 0-10.789-4.833-10.789-10.792v-41.957h-221.945c-17.861 0-32.338-14.479-32.338-32.341v-101.595h763.209v101.592c0 17.861-14.477 32.341-32.338 32.341z" />
<glyph unicode="&#xe922;" glyph-name="sign" d="M935.409 579.436v34.124h-519.226v230.42c0 9.422-7.639 17.062-17.062 17.062h-32.417v81.897c0 9.422-7.639 17.062-17.062 17.062s-17.062-7.639-17.062-17.062v-81.897h-32.417c-9.422 0-17.062-7.639-17.062-17.062v-32.417h-23.136c-28.182-0.066-51.011-22.901-51.066-51.083v-114.417c0-9.422 7.639-17.062 17.062-17.062s17.062 7.639 17.062 17.062v114.417c0 9.361 7.582 16.951 16.942 16.959h23.153v-198.77l-155.143-163.043c-19.41-20.899-23.234-51.889-9.486-76.881l-12.080-12.694c-23.409-25.1-23.793-63.914-0.887-89.472l172.836-194.505c6.255-7.038 17.030-7.68 24.074-1.433l30.984-92.902c2.943-8.951 12.585-13.824 21.536-10.881 5.151 1.693 9.188 5.731 10.881 10.881l49.479 148.438c0.497 1.597 0.759 3.259 0.785 4.931 0 0.171 0.085 0.307 0.085 0.461v30.097l3.958-4.914c2.834-3.538 6.959-5.803 11.466-6.296 0.614 0 1.228 0 1.843 0 3.884 0 7.652 1.322 10.681 3.754l114.314 91.69c9.425 7.558 16.61 17.546 20.781 28.886l24.859 66.302 61.747 29.346h269.577v34.124h-273.416c-2.542-0.015-5.048-0.597-7.337-1.706l-33.407-15.902 13.803 36.854-31.957 11.943-55.946-149.257c-2.013-5.551-5.52-10.442-10.135-14.127l-100.938-81.027-8.633 10.783c-17.616 21.956-14.104 54.037 7.848 71.66l50.401 40.573c2.414 1.956 4.259 4.526 5.34 7.439l42.382 115.833-32.042 11.739-40.761-111.363-44.361-35.676v307.113h519.157zM131.011 259.253c-11.092 12.372-10.966 31.149 0.29 43.371l8.633 9.060 143.183-161.047v-48.848c0-0.154 0.085-0.29 0.085-0.461 0.017-1.674 0.282-3.336 0.785-4.931l4.897-14.656-157.873 177.511zM152.543 348.777c-11.165 12.402-11.026 31.274 0.324 43.508v0l130.25 136.887v-94.198l-51.783-53.369c-6.221-6.415-6.437-16.546-0.495-23.221l77.29-87.015c25.659-28.898 27.657-71.792 4.794-102.951l-160.381 180.361zM283.118 385.972v-34.96l-16.243 18.256 16.243 16.704zM349.659 7.318l-25.815 77.41h51.612l-25.797-77.41zM382.076 118.852h-64.835v8.053c2.512 0.587 4.85 1.755 6.825 3.412 47.886 42.574 52.194 115.905 9.623 163.794l-16.379 18.444v514.363h64.767v-708.066z" />
<glyph unicode="&#xe923;" glyph-name="minus" d="M0 472.381h1024v-48.762h-1024v48.762z" />
<glyph unicode="&#xe924;" glyph-name="team" d="M903.44 485.48c-34.844 17.42-100.174 17.622-102.938 17.622-8.284 0-15-6.716-15-15s6.716-15 15-15c16.858-0.002 65.804-2.598 89.522-14.456 2.154-1.078 4.442-1.586 6.696-1.586 5.502 0 10.8 3.040 13.428 8.294 3.706 7.41 0.702 16.42-6.708 20.126zM978.224 271.918l-61.95 17.7c-2.674 0.764-4.542 3.24-4.542 6.022v20.678c5.040 3.492 9.848 7.4 14.342 11.762 21.78 21.136 33.774 49.486 33.774 79.83v28.534l5.99 11.978c6.574 13.15 10.048 27.872 10.048 42.572v77.3c0 8.284-6.716 15-15 15h-144.346c-52.488 0-95.192-42.704-95.192-95.192v-0.894c0-12.224 2.89-24.466 8.356-35.398l7.682-15.364v-24.5c0-38.828 19.134-73.666 48.116-94.63l0.004-21.672c0-3.342 0-4.726-12.386-8.266l-30.228-8.636-87.442 31.796c0.314 4.126-1.078 8.322-4.088 11.484l-27.942 29.356v49.28c2.954 2.434 5.866 4.934 8.688 7.578 35.25 33.040 55.466 79.688 55.466 127.982v39.356c10.644 23.162 16.038 47.672 16.038 72.914v160.38c0 8.284-6.716 15-15 15h-224.538c-79.020 0-143.306-64.288-143.306-143.306v-32.078c0-25.242 5.394-49.752 16.038-72.914v-33.862c0-56.072 24.932-106.588 64.154-139.892v-50.44l-27.942-29.356c-3.010-3.162-4.402-7.358-4.088-11.484l-92.29-33.558c-6.688-2.432-12.902-5.726-18.544-9.716l-14.492 7.246c43.14 18.778 56.806 45.188 57.462 46.5 2.112 4.222 2.112 9.194 0 13.416-10.814 21.628-12.124 61.27-13.176 93.122-0.35 10.604-0.682 20.622-1.316 29.542-5.114 71.948-59.81 126.206-127.23 126.206s-122.118-54.256-127.23-126.206c-0.634-8.922-0.966-18.94-1.316-29.546-1.052-31.85-2.364-71.488-13.176-93.116-2.112-4.222-2.112-9.194 0-13.416 0.656-1.312 14.294-27.668 57.52-46.468l-40.254-20.126c-21.52-10.768-34.888-32.398-34.888-56.456v-110.818c0-8.284 6.716-15 15-15s15 6.716 15 15v110.818c0 12.624 7.014 23.974 18.304 29.62l50.126 25.062 17.436-16.57c12.192-11.586 27.832-17.376 43.478-17.376 15.642 0 31.29 5.794 43.478 17.376l17.434 16.568 16.344-8.172c-7.696-12.314-12.064-26.754-12.064-41.88v-115.45c0-8.284 6.716-15 15-15s15 6.716 15 15v115.45c0 20.592 13.002 39.156 32.356 46.194l97.304 35.382 40.506-60.762c5.178-7.768 13.476-12.75 22.766-13.67 1.036-0.102 2.066-0.152 3.094-0.152 8.196 0 16.046 3.226 21.914 9.092l24.712 24.712v-156.248c0-8.284 6.716-15 15-15s15 6.716 15 15v156.248l24.712-24.712c5.866-5.868 13.716-9.094 21.914-9.094 1.026 0 2.058 0.050 3.092 0.152 9.292 0.92 17.59 5.902 22.768 13.67l40.508 60.76 97.302-35.382c19.352-7.038 32.356-25.602 32.356-46.194v-115.45c0-8.284 6.716-15 15-15s15 6.716 15 15v115.45c0 20.856-8.286 40.416-22.186 54.882l3.706 1.058c3.738 1.068 8.838 2.53 13.958 5.040l38.298-38.298v-138.132c0-8.284 6.716-15 15-15s15 6.716 15 15v138.132l38.032 38.032c2.022-1.028 4.146-1.896 6.382-2.534l61.952-17.7c14.14-4.040 24.018-17.134 24.018-31.842v-124.088c0-8.284 6.716-15 15-15s15 6.716 15 15v124.088c0 28.036-18.824 52.994-45.776 60.696zM96.23 298.412c-28.058 10.096-42.132 23.556-48.14 30.906 4.096 10.708 6.752 22.972 8.55 35.918 8.272-19.834 22.126-36.766 39.59-48.846v-17.978zM182.16 257.816c-12.794-12.156-32.836-12.154-45.626 0.002l-13.95 13.256c2.354 4.41 3.648 9.41 3.648 14.648v15.988c10.464-3.27 21.588-5.034 33.116-5.034 11.514 0 22.632 1.772 33.114 5.024l-0.002-15.976c0-5.24 1.292-10.242 3.648-14.654l-13.948-13.254zM159.352 326.676c-44.792 0-81.23 36.44-81.23 81.23 0 8.284-6.716 15-15 15-0.84 0-1.66-0.086-2.462-0.22 0.044 1.29 0.086 2.582 0.13 3.86 0.334 10.314 0.656 20.056 1.25 28.412 1.916 26.952 12.686 51.788 30.326 69.936 17.798 18.312 41.586 28.396 66.982 28.396s49.182-10.084 66.982-28.396c17.64-18.148 28.41-42.984 30.326-69.936 0.592-8.354 0.916-18.094 1.256-28.406 0.030-0.886 0.060-1.784 0.090-2.676-16.32 25.144-41.524 43.674-74.090 54.138-30.086 9.666-55.962 9.068-57.054 9.040-3.928-0.11-7.656-1.754-10.382-4.582l-27.064-28.068c-5.75-5.964-5.578-15.46 0.386-21.21s15.46-5.576 21.21 0.386l22.52 23.354c19.394-0.948 81.788-8.204 106.054-61.638-6.106-39.376-39.95-68.62-80.23-68.62zM222.458 298.362l0.002 17.89c17.45 12.014 31.324 28.914 39.602 48.898 1.798-12.916 4.452-25.152 8.54-35.836-5.974-7.28-20.114-20.86-48.144-30.952zM366.806 541.71v37.216c0 2.258-0.51 4.488-1.492 6.522-9.652 19.988-14.546 41.196-14.546 63.036v32.076c0 62.478 50.83 113.306 113.306 113.306h209.538v-145.384c0-21.84-4.894-43.048-14.546-63.036-0.982-2.034-1.492-4.264-1.492-6.522v-42.71c0-40.622-16.33-78.3-45.982-106.094-3.702-3.468-7.544-6.72-11.516-9.75-0.088-0.060-0.172-0.126-0.258-0.188-27.778-21.090-61.802-31.34-97.334-29.038-76.082 4.926-135.678 71.062-135.678 150.566zM451.264 239.888c-0.104-0.104-0.346-0.35-0.836-0.298-0.488 0.048-0.68 0.334-0.762 0.458l-46.65 69.976 15.012 15.774 70.77-48.374-37.534-37.536zM512.19 297.774l-81.23 55.524v28c21.018-11.362 44.552-18.468 69.582-20.088 3.954-0.256 7.884-0.382 11.802-0.382 28.682 0 56.286 6.856 81.076 19.87v-27.4l-81.23-55.524zM574.714 240.044c-0.082-0.124-0.274-0.41-0.762-0.458-0.49-0.062-0.73 0.196-0.836 0.298l-37.534 37.534 70.77 48.376 15.014-15.774-46.652-69.976zM848.616 252.7l-34.040 34.038c0.594 2.698 0.93 5.652 0.928 8.91l-0.002 6.33c9.446-3.1 19.402-4.94 29.704-5.248 1.156-0.036 2.302-0.052 3.454-0.052 11.384 0 22.496 1.72 33.072 5.002v-6.040c0-2.992 0.376-5.924 1.084-8.742l-34.2-34.198zM905.182 349.608c-15.898-15.428-36.9-23.576-59.074-22.892-43.408 1.302-78.722 39.536-78.722 85.226v28.042c0 2.33-0.542 4.626-1.584 6.708l-9.266 18.532c-3.394 6.79-5.188 14.39-5.188 21.982v0.894c0 35.948 29.246 65.192 65.192 65.192h129.346v-62.3c0-10.068-2.38-20.15-6.882-29.156l-7.572-15.144c-1.042-2.084-1.584-4.378-1.584-6.708v-32.076c0-22.16-8.76-42.864-24.666-58.3zM944.846 198.372c-8.284 0-15-6.716-15-15v-96.23c0-8.284 6.716-15 15-15s15 6.716 15 15v96.23c0 8.282-6.716 15-15 15zM79.154 178.544c-8.284 0-15-6.716-15-15v-76.402c0-8.284 6.716-15 15-15s15 6.716 15 15v76.402c0 8.282-6.716 15-15 15zM635.064 643.050c-56.732 56.732-175.43 45.886-223.834 38.59-15.246-2.298-26.31-15.2-26.31-30.678v-34.556c0-8.284 6.716-15 15-15s15 6.716 15 15v34.558c0 0.51 0.336 0.946 0.784 1.014 19.334 2.914 57.7 7.41 97.45 4.76 46.776-3.114 80.656-14.856 100.698-34.9 5.858-5.858 15.356-5.858 21.212 0 5.858 5.858 5.858 15.356 0 21.212zM335.768 166.294c-8.284 0-15-6.716-15-15v-64.154c0-8.284 6.716-15 15-15s15 6.716 15 15v64.154c0 8.282-6.716 15-15 15zM688.612 166.294c-8.284 0-15-6.716-15-15v-64.154c0-8.284 6.716-15 15-15s15 6.716 15 15v64.154c0 8.282-6.716 15-15 15z" />
<glyph unicode="&#xe925;" glyph-name="testimonial" d="M247.712 816.724h-36.392c5.474 40.526 27.882 42.562 38.194 43.5 10.302 0.938 18.188 9.574 18.188 19.918v59.85c0 5.498-2.264 10.756-6.26 14.534s-9.376 5.736-14.862 5.434c-63.22-3.556-138.58-35.476-138.58-167.352v-104.080c0-17.374 14.134-31.508 31.508-31.508h108.206c17.374 0 31.508 14.136 31.506 31.51v96.686c0 17.374-14.134 31.508-31.508 31.508zM239.222 697.022h-91.222v95.586c0 92.020 40.922 117.72 79.702 124.974v-21.028c-26.782-8.152-57.606-32.228-57.606-99.83 0-11.046 8.954-20 20-20h49.126v-79.702zM452.182 816.724h-36.394c5.474 40.526 27.882 42.562 38.194 43.5 10.302 0.938 18.188 9.574 18.188 19.918v59.85c0 5.498-2.264 10.756-6.26 14.534s-9.38 5.736-14.862 5.434c-63.22-3.556-138.58-35.476-138.58-167.352v-104.080c0-17.374 14.134-31.508 31.508-31.508h108.206c17.374 0 31.51 14.136 31.508 31.512v96.684c0 17.374-14.134 31.508-31.508 31.508zM443.69 697.020h-91.222v95.588c0 92.020 40.922 117.72 79.702 124.974v-21.028c-26.782-8.152-57.606-32.228-57.606-99.83 0-11.046 8.954-20 20-20h49.126v-79.704zM570.14 798.41c-3.72 3.72-8.88 5.86-14.14 5.86s-10.42-2.14-14.14-5.86-5.86-8.88-5.86-14.14 2.14-10.42 5.86-14.14c3.72-3.72 8.88-5.86 14.14-5.86s10.42 2.14 14.14 5.86 5.86 8.88 5.86 14.14-2.14 10.42-5.86 14.14zM668.534 804.272h-25.202c-11.046 0-20-8.954-20-20s8.954-20 20-20h25.202c173.948 0 315.466-141.518 315.466-315.466 0-148.464-105.296-278.304-250.374-308.73-9.262-1.944-15.894-10.112-15.894-19.574v-116.208l-123.188 123.188c-3.75 3.75-8.838 5.858-14.142 5.858h-224.936c-173.948 0-315.466 141.518-315.466 315.466 0 53.61 13.686 106.548 39.58 153.096 5.372 9.652 1.898 21.83-7.754 27.2-9.654 5.372-21.832 1.898-27.2-7.754-29.196-52.478-44.626-112.142-44.626-172.542 0-196.006 159.46-355.466 355.466-355.466h216.652l151.472-151.472c3.826-3.826 8.94-5.858 14.146-5.858 2.576 0 5.176 0.498 7.65 1.524 7.472 3.094 12.346 10.386 12.346 18.476v148.642c72.366 18.752 137.8 60.478 185.614 118.686 52.010 63.314 80.654 143.386 80.654 225.468 0 196.004-159.46 355.464-355.466 355.466zM758.128 605.016h-492.254c-11.046 0-20-8.954-20-20s8.954-20 20-20h492.252c11.046 0 20.002 8.954 20.002 20s-8.954 20-20 20zM758.128 498.35h-492.254c-11.046 0-20-8.954-20-20s8.954-20 20-20h492.252c11.046 0 20.002 8.954 20.002 20s-8.954 20-20 20zM758.128 391.684h-492.254c-11.046 0-20-8.956-20-20s8.954-20 20-20h492.252c11.046 0 20.002 8.956 20.002 20s-8.954 20-20 20zM758.126 285.016h-262.384c-11.046 0-20-8.956-20-20s8.954-20 20-20h262.384c11.046 0 20 8.956 20 20s-8.954 20-20 20zM383.214 285.018h-0.322c-11.046 0-20-8.956-20-20s8.954-20 20-20h0.322c11.046 0 20 8.956 20 20s-8.954 20-20 20z" />
<glyph unicode="&#xe926;" glyph-name="check" d="M1017.76 783.106c-8.32 8.32-21.846 8.32-30.167 0l-624.907-624.953-326.279 326.237c-8.32 8.32-21.846 8.32-30.167 0s-8.32-21.846 0-30.167l341.341-341.341c4.182-4.138 9.642-6.23 15.104-6.23s10.922 2.090 15.062 6.272l640.014 640.014c8.318 8.322 8.318 21.848-0.002 30.169z" />
<glyph unicode="&#xe927;" glyph-name="user_icon" d="M511.999 446.68c-269.853 0-489.401-219.551-489.401-489.401 0-11.746 9.533-21.279 21.279-21.279s21.279 9.533 21.279 21.279c0 246.403 200.442 446.845 446.845 446.845s446.845-200.442 446.845-446.845c0-11.746 9.533-21.279 21.279-21.279s21.279 9.533 21.279 21.279c-0.002 269.895-219.553 489.401-489.405 489.401zM511.999 960c-129.033 0-234.061-104.987-234.061-234.061s105.031-234.061 234.061-234.061 234.061 104.987 234.061 234.061-105.029 234.061-234.061 234.061zM511.999 534.434c-105.583 0-191.505 85.922-191.505 191.505s85.922 191.505 191.505 191.505c105.583 0 191.505-85.922 191.505-191.505s-85.922-191.505-191.505-191.505z" />
<glyph unicode="&#xe928;" glyph-name="video" d="M251.716 900h610.284v60h-610.284c-49.47 0-89.716-40.374-89.716-90v-844c0-49.626 40.374-90 90-90h610v904h-610.284c-16.386 0-29.716 13.458-29.716 30s13.33 30 29.716 30zM251.716 780h550.284v-784h-550c-16.542 0-30 13.458-30 30v759.074c9.304-3.286 19.304-5.074 29.716-5.074zM384 595.232v-384.462l329.54 192.23-329.54 192.232zM444 490.768l150.46-87.768-150.46-87.768v175.536z" />
<glyph unicode="&#xe929;" glyph-name="video_call" d="M512 72.534c56.474 0 102.4 45.926 102.4 102.4v51.2c0 47.052-38.28 85.334-85.334 85.334h-34.134c-47.052 0-85.334-38.28-85.334-85.334v-51.2c0.002-56.474 45.928-102.4 102.402-102.4zM443.734 226.134c0 28.228 22.972 51.2 51.2 51.2h34.134c28.228 0 51.2-22.972 51.2-51.2v-51.2c0-37.65-30.618-68.266-68.266-68.266-37.65 0-68.266 30.618-68.266 68.266v51.2zM170.666 72.534c56.474 0 102.4 45.926 102.4 102.4v51.2c0 47.052-38.28 85.334-85.334 85.334h-34.132c-47.052 0-85.334-38.28-85.334-85.334v-51.2c0-56.474 45.928-102.4 102.4-102.4zM102.4 226.134c0 28.228 22.972 51.2 51.2 51.2h34.134c28.228 0 51.2-22.972 51.2-51.2v-51.2c0-37.65-30.618-68.266-68.266-68.266-37.65 0-68.266 30.618-68.266 68.266v51.2zM853.334 72.534c56.474 0 102.4 45.926 102.4 102.4v51.2c0 47.052-38.28 85.334-85.334 85.334h-34.134c-47.052 0-85.334-38.28-85.334-85.334v-51.2c0.002-56.474 45.928-102.4 102.402-102.4zM785.066 226.134c0 28.228 22.972 51.2 51.2 51.2h34.134c28.228 0 51.2-22.972 51.2-51.2v-51.2c0-37.65-30.618-68.266-68.266-68.266s-68.266 30.618-68.266 68.266v51.2zM938.666 38.4h-170.666c-37.376 0-65.928-15.206-85.334-45.294-19.404 30.088-47.958 45.294-85.334 45.294h-170.666c-37.376 0-65.928-15.206-85.334-45.294-19.404 30.088-47.974 45.294-85.332 45.294h-170.666c-47.054 0-85.334-38.28-85.334-85.334 0-9.42 7.628-17.066 17.066-17.066s17.066 7.646 17.066 17.066c0 28.228 22.972 51.2 51.2 51.2h170.668c23.398 0 52.412-6.434 69.154-56.594 2.304-6.98 8.824-11.674 16.18-11.674s13.876 4.694 16.18 11.674c16.742 50.16 45.756 56.594 69.154 56.594h170.666c23.398 0 52.412-6.434 69.154-56.594 2.322-6.98 8.824-11.674 16.18-11.674s13.858 4.694 16.18 11.674c16.742 50.16 45.756 56.594 69.154 56.594h170.666c28.228 0 51.2-22.972 51.2-51.2 0-9.42 7.628-17.066 17.066-17.066s17.066 7.646 17.066 17.066c0 47.054-38.28 85.334-85.334 85.334zM512 516.266c-18.808 0-34.134-15.308-34.134-34.134 0-12.578 6.912-23.466 17.066-29.388v-21.812c0-9.42 7.628-17.066 17.066-17.066s17.066 7.646 17.066 17.066v21.812c10.154 5.922 17.066 16.81 17.066 29.388 0.004 18.826-15.306 34.134-34.13 34.134zM600.082 516.044h-2.782c-8.516-0.018-15.736-6.314-16.878-14.762l-9.268-68.044c-1.262-9.336 5.256-17.938 14.61-19.2 9.352-1.246 17.954 5.256 19.218 14.61l7.236 53.196c107.434-1.246 161.212-18.79 173.738-56.302 2.372-7.152 9.028-11.674 16.18-11.674 1.774 0 3.6 0.274 5.394 0.87 8.942 2.986 13.772 12.664 10.786 21.59-23.232 69.732-118.292 79.716-218.234 79.716zM443.58 501.282c-1.16 8.448-8.362 14.746-16.878 14.762-101.086-0.29-197.546-9.336-221.014-79.718-2.986-8.926 1.844-18.602 10.786-21.59 1.792-0.598 3.602-0.87 5.394-0.87 7.15 0 13.806 4.522 16.18 11.674 12.526 37.512 66.304 55.058 173.738 56.302l7.254-53.214c1.262-9.336 9.762-15.804 19.218-14.592 9.352 1.28 15.872 9.864 14.61 19.218l-9.288 68.028zM938.666 960h-853.332c-47.054 0-85.334-38.28-85.334-85.334v-443.734c0-47.052 38.28-85.332 85.334-85.332h853.334c47.052 0 85.334 38.28 85.334 85.334v443.732c-0.002 47.054-38.282 85.334-85.336 85.334zM989.866 430.934c0-28.228-22.972-51.2-51.2-51.2h-853.332c-28.228 0-51.2 22.972-51.2 51.2v443.732c0 28.228 22.972 51.2 51.2 51.2h853.334c28.228 0 51.2-22.972 51.2-51.2v-443.732zM460.8 721.066h17.066c9.438 0 17.066 7.646 17.066 17.066s-7.628 17.066-17.066 17.066h-17.066c-9.438 0-17.066-7.646-17.066-17.066s7.628-17.066 17.066-17.066zM546.134 721.066h17.066c9.438 0 17.066 7.646 17.066 17.066s-7.628 17.066-17.066 17.066h-17.066c-9.438 0-17.066-7.646-17.066-17.066s7.628-17.066 17.066-17.066zM376.116 691.148c3.26-32.802 17.528-61.678 18.228-63.044 15.46-30.942 38.842-77.704 117.656-77.704s102.196 46.762 117.658 77.704c0.7 1.366 14.95 30.242 18.228 63.044 10.548 5.802 17.716 17.050 17.716 29.918v34.134c0 12.612-6.86 23.638-17.066 29.542v4.59c0 56.474-45.926 102.4-102.4 102.4h-68.266c-56.474 0-102.4-45.926-102.4-102.4v-4.59c-10.206-5.906-17.066-16.93-17.066-29.542v-34.134c-0.004-12.868 7.164-24.114 17.712-29.918zM392.534 755.2c9.438 0 17.066 7.646 17.066 17.066v17.066c0 37.65 30.618 68.266 68.266 68.266h68.266c37.65 0 68.266-30.618 68.266-68.266v-17.066c0-9.42 7.628-17.066 17.066-17.066v-34.134c-9.438 0-17.066-7.646-17.066-17.066 0-29.526-15.122-60.348-15.258-60.638-17.784-35.532-33.45-58.828-87.142-58.828-53.708 0-69.376 23.296-87.126 58.812-0.154 0.308-15.274 31.13-15.274 60.654 0 9.42-7.628 17.066-17.066 17.066v34.134z" />
<glyph unicode="&#xe92a;" glyph-name="warning" d="M559.335 206.973c0-26.146-21.195-47.341-47.341-47.341s-47.341 21.195-47.341 47.341c0 26.146 21.195 47.341 47.341 47.341s47.341-21.195 47.341-47.341zM505.633 329.823c14.39 0 26.069 11.679 26.069 26.069v247.655c0 14.39-11.679 26.069-26.069 26.069s-26.069-11.679-26.069-26.069v-247.655c0-14.39 11.679-26.069 26.069-26.069zM607.015 809.556l-1.186 1.838c-24.14 37.2-49.088 75.678-93.835 75.678-46.637 0-71.038-39.025-94.63-76.786-0.117-0.182-0.847-1.356-0.965-1.551l-412.775-699.442c-2.372-4.015-3.624-6.113-3.624-10.766 0-50.782 40.863-89.599 91.085-89.599h841.83c50.235 0 91.085 38.83 91.085 89.599 0 4.653-1.251 8.003-3.611 12.005l-413.375 699.025zM932.915 61.066h-841.83c-19.043 0-35.415 12.396-38.452 31.204l408.943 691.621c20.256 32.417 33.525 51.656 50.417 51.656 16.436 0 32.026-24.374 50.091-52.216l409.269-690.917c-3.024-18.796-19.395-31.348-38.439-31.348z" />
<glyph unicode="&#xe92b;" glyph-name="xls" d="M899.531 744.836l-205.453 205.453c-6.162 6.162-14.707 9.71-23.446 9.71h-512.388c-20.939 0-43.485-16.172-43.485-51.659v-937.031c0-14.777 14.866-29.184 32.45-33.721 0.883-0.23 1.73-0.565 2.648-0.742 2.754-0.547 5.561-0.847 8.386-0.847h707.513c2.825 0 5.632 0.3 8.386 0.847 0.918 0.177 1.766 0.512 2.648 0.742 17.585 4.537 32.45 18.944 32.45 33.721v741.906c0 13.542-1.624 23.534-9.71 31.62zM846.301 748.138h-148.921v148.921l148.921-148.921zM158.243-28.69c-1.254 0-2.383 0.459-3.496 0.865-2.754 1.306-4.679 4.061-4.679 7.309v256.653h723.862v-256.653c0-3.249-1.924-5.985-4.679-7.309-1.112-0.406-2.242-0.865-3.496-0.865h-707.513zM150.069 271.448v636.893c0 3.831 0.583 16.349 8.174 16.349h504.85c-0.583-2.225-1.024-4.52-1.024-6.903v-204.959h204.959c2.383 0 4.661 0.441 6.886 1.024 0-0.265 0.018-0.371 0.018-0.636v-441.768h-723.862zM392.422 184.514l-34.039-72.404h-2.419l-31.373 72.404h-33.068l48.022-91.471-45.127-86.422h33.545l30.42 67.107h2.419l28.231-67.107h33.562l-45.144 86.422 48.040 91.471zM494.998 184.514h-29.449v-177.894h111.281v21.963h-81.832zM687.492 93.767c-5.544 4.025-11.546 7.45-17.991 10.258s-12.394 5.703-17.867 8.686c-5.473 2.984-10.063 6.426-13.753 10.381-3.708 3.955-5.544 9.145-5.544 15.572 0 2.578 0.636 5.279 1.924 8.086s3.054 5.35 5.314 7.609c2.242 2.26 4.82 4.131 7.733 5.667s5.95 2.454 9.181 2.772c5.791 0.477 10.54 0.565 14.248 0.247 3.69-0.335 6.674-0.883 8.934-1.695 2.242-0.812 3.99-1.607 5.191-2.419s2.295-1.448 3.266-1.924c0.159 0.159 0.636 0.971 1.448 2.419 0.794 1.448 1.766 3.266 2.895 5.438 1.112 2.172 2.33 4.502 3.619 6.991 1.289 2.507 2.419 4.785 3.372 6.886-4.679 3.054-10.787 5.279-18.344 6.638-7.574 1.359-15.060 2.048-22.44 2.048-7.239 0-14.124-1.112-20.639-3.372s-12.235-5.526-17.143-9.781c-4.908-4.255-8.81-9.446-11.705-15.572s-4.343-13.118-4.343-20.992c0-8.686 1.836-15.925 5.544-21.716 3.69-5.791 8.369-10.823 14.001-15.078s11.67-7.962 18.097-11.105c6.426-3.143 12.429-6.268 17.991-9.41s10.169-6.638 13.877-10.505c3.69-3.866 5.544-8.527 5.544-14.001 0-9.022-2.613-15.819-7.839-20.392-5.226-4.59-12.765-6.886-22.563-6.886-3.231 0-6.674 0.335-10.381 0.971s-7.398 1.483-11.105 2.542c-3.708 1.059-7.292 2.172-10.734 3.372-3.46 1.201-6.321 2.454-8.563 3.743l-5.067-20.762c2.737-2.419 5.985-4.467 9.781-6.162 3.778-1.695 7.751-3.019 11.953-3.99 4.184-0.971 8.333-1.66 12.429-2.048s8.086-0.6 11.953-0.6c9.004 0 17.055 1.359 24.135 4.096s13.030 6.391 17.867 10.982 8.563 9.905 11.229 15.925 3.99 12.27 3.99 18.714c0 9.498-1.854 17.267-5.544 23.287-3.761 6.020-8.386 11.052-13.948 15.078zM432.552 730.483h-211.862v-388.414h582.621v317.793h-370.759v70.621zM256 624.552h141.241v-35.31h-141.241v35.31zM256 553.931h141.241v-35.31h-141.241v35.31zM256 483.31h141.241v-35.31h-141.241v35.31zM397.241 377.379h-141.241v35.31h141.241v-35.31zM768 377.379h-335.448v35.31h335.448v-35.31zM768 448h-335.448v35.31h335.448v-35.31zM768 518.621h-335.448v35.31h335.448v-35.31zM768 624.552v-35.31h-335.448v35.31h335.448zM256 659.862v35.31h141.241v-35.31h-141.241z" />
<glyph unicode="&#xe92c;" glyph-name="location2" d="M512 960c-192.283 0-348.16-155.877-348.16-348.16v0c0-203.85 204.112-528.249 299.77-651.981 11.293-14.571 28.798-23.861 48.472-23.861 19.644 0 37.124 9.26 48.315 23.653l0.103 0.138c95.678 123.408 299.659 446.972 299.659 652.050 0 192.283-155.877 348.16-348.16 348.16v0zM528.13-15.11c-3.731-4.847-9.534-7.939-16.060-7.939s-12.33 3.093-16.025 7.892l-0.035 0.047c-95.011 122.921-291.209 437.871-291.209 626.95 0 169.662 137.538 307.2 307.2 307.2s307.2-137.538 307.2-307.2v0c0-190.12-196.108-504.492-291.078-626.95zM512 796.16c-79.176 0-143.36-64.184-143.36-143.36s64.184-143.36 143.36-143.36c79.176 0 143.36 64.184 143.36 143.36v0c0 79.176-64.184 143.36-143.36 143.36v0zM512 550.4c-56.554 0-102.4 45.846-102.4 102.4s45.846 102.4 102.4 102.4c56.554 0 102.4-45.846 102.4-102.4v0c-0.068-56.527-45.873-102.332-102.393-102.4h-0.007z" />
<glyph unicode="&#xe92d;" glyph-name="visibility" d="M512.014 746.657c-262.866 0-497.102-273.234-506.958-284.882-6.742-7.936-6.742-19.584 0-27.562 5.888-6.954 91.989-106.92 216.147-186.535l133.716 133.716c-8.704 20.48-13.568 42.965-13.568 66.601 0 94.121 76.543 170.663 170.663 170.663 23.638 0 46.121-4.864 66.601-13.568l109.95 109.95c-53.589 19.158-112.424 31.616-176.551 31.616zM1020.208 460.156c-5.462 7.894-96.040 135.38-248.316 217.555l117.886 117.886c8.32 8.32 8.32 21.846 0 30.166s-21.846 8.32-30.166 0l-725.321-725.325c-8.32-8.32-8.32-21.846 0-30.166 4.138-4.182 9.6-6.272 15.062-6.272s10.922 2.090 15.104 6.23l133.758 133.758c65.919-32.169 138.622-54.655 213.799-54.655 262.866 0 497.102 273.234 506.958 284.882 6.186 7.382 6.74 18.006 1.236 25.942zM512.014 277.331c-39.381 0-75.177 13.952-104.104 36.393l238.374 238.374c22.442-28.928 36.393-64.725 36.393-104.104 0-94.121-76.543-170.663-170.663-170.663z" />
<glyph unicode="&#xe92e;" glyph-name="block" d="M512 380.698c-42.536 0-77.142-34.606-77.142-77.144 0-35.592 24.234-65.614 57.062-74.474v-110.95c0-11.088 8.992-20.078 20.078-20.078 11.088 0 20.078 8.992 20.078 20.078v110.95c32.828 8.86 57.062 38.884 57.062 74.474 0.004 42.538-34.602 77.144-77.138 77.144zM512 266.572c-20.394 0-36.984 16.59-36.984 36.984s16.59 36.986 36.984 36.986c20.394 0 36.984-16.592 36.984-36.986s-16.59-36.984-36.984-36.984zM783.078 596.46h-45.036v137.498c0 124.64-101.402 226.042-226.042 226.042s-226.042-101.402-226.042-226.042v-137.496h-45.036c-65.952 0-119.608-53.648-119.608-119.59v-421.266c0-65.954 53.658-119.608 119.608-119.608h542.158c65.952 0 119.608 53.656 119.608 119.608v421.266c-0.002 65.942-53.66 119.588-119.61 119.588zM326.114 733.958c0 102.498 83.388 185.886 185.886 185.886s185.886-83.388 185.886-185.886v-137.496h-56.622v137.496c0 71.288-57.988 129.286-129.264 129.286s-129.264-57.996-129.264-129.286v-137.496h-56.622v137.496zM601.108 733.958v-137.496h-178.216v137.496c0 49.146 39.974 89.128 89.108 89.128s89.108-39.982 89.108-89.128zM862.53 55.608c0-43.81-35.642-79.45-79.45-79.45h-542.158c-43.81 0-79.45 35.642-79.45 79.45v421.264c0 43.796 35.642 79.432 79.45 79.432h542.158c43.81 0 79.45-35.634 79.45-79.432v-421.264zM815.142 401.996c-11.088 0-20.078-8.992-20.078-20.078v-177.014c0-11.088 8.992-20.078 20.078-20.078s20.078 8.992 20.078 20.078v177.014c0 11.088-8.99 20.078-20.078 20.078zM814.666 468.246c-25.838 0-25.882-40.156 0-40.156 25.84-0.002 25.884 40.156 0 40.156z" />
<glyph unicode="&#xe92f;" glyph-name="cloud_computing" d="M869.973 606.822c-8.994 153.6-135.612 276.378-288.273 276.378-92.672 0-182.409-45.449-238.012-119.603-1.263 0.666-2.611 1.109-3.891 1.741-3.379 1.638-6.81 3.209-10.325 4.591-1.963 0.768-3.925 1.468-5.905 2.167-3.447 1.212-6.929 2.27-10.496 3.243-1.98 0.529-3.942 1.075-5.956 1.536-3.823 0.87-7.714 1.536-11.657 2.116-1.741 0.256-3.447 0.597-5.205 0.802-5.632 0.614-11.366 1.007-17.186 1.007-84.685 0-153.6-68.898-153.6-153.6 0-2.202 0.119-4.352 0.273-6.502-70.98-38.69-119.74-119.774-119.74-200.926 0-120.883 98.338-219.238 219.221-219.238h87.979c9.421 0 17.067 7.629 17.067 17.067s-7.646 17.067-17.067 17.067h-87.979c-102.059 0-185.088 83.029-185.088 185.105 0 70.895 46.165 144.486 109.773 174.985l9.694 4.625v10.752c0 2.099 0.137 4.25 0.256 6.4l0.154 2.987-0.205 3.209c-0.085 1.485-0.205 2.97-0.205 4.471 0 65.86 53.589 119.467 119.467 119.467 5.274 0 10.479-0.461 15.65-1.143 1.331-0.171 2.645-0.393 3.959-0.614 4.574-0.751 9.079-1.741 13.517-3.021 0.58-0.171 1.178-0.273 1.741-0.444 4.881-1.485 9.643-3.379 14.302-5.495 1.178-0.529 2.338-1.109 3.499-1.69 4.13-2.031 8.175-4.284 12.066-6.81 32.887-21.316 54.733-58.249 54.733-100.25 0-9.438 7.646-17.067 17.067-17.067s17.067 7.629 17.067 17.067c0 47.002-21.265 89.071-54.613 117.265 48.913 64 129.502 104.602 209.647 104.602 132.164 0 241.971-104.704 253.406-237.005-17.442 1.229-43.571 1.86-69.683-2.133-9.318-1.417-15.718-10.121-14.302-19.439 1.28-8.448 8.55-14.507 16.845-14.507 0.853 0 1.724 0.068 2.594 0.205 37.956 5.734 77.534 0.358 79.94 0.034 79.462-15.104 139.366-88.303 139.366-170.411 0-94.362-76.783-171.145-171.145-171.145h-67.789c-9.421 0-17.067-7.629-17.067-17.067s7.646-17.067 17.067-17.067h67.789c113.186 0 205.278 92.092 205.278 205.278 0 93.679-65.314 177.698-154.027 201.011zM541.15 434.449c-1.57 1.587-3.465 2.833-5.564 3.703-4.164 1.724-8.875 1.724-13.039 0-2.099-0.87-3.977-2.116-5.564-3.703l-136.516-136.516c-6.673-6.673-6.673-17.459 0-24.132 3.328-3.328 7.697-5.001 12.066-5.001s8.738 1.673 12.066 5.001l107.401 107.401v-351.334c0-9.438 7.646-17.067 17.067-17.067s17.067 7.629 17.067 17.067v351.334l107.401-107.401c3.328-3.328 7.697-5.001 12.066-5.001s8.738 1.673 12.066 5.001c6.673 6.673 6.673 17.459 0 24.132l-136.516 136.516z" />
<glyph unicode="&#xe930;" glyph-name="copy_files" d="M946.987 629.060c-0.11 1.563-0.404 3.070-0.919 4.559-0.221 0.625-0.368 1.232-0.643 1.838-0.901 1.949-2.004 3.787-3.567 5.35v0.018c0 0-0.018 0.018-0.018 0.037l-313.806 313.75c-1.581 1.599-3.456 2.721-5.423 3.622-0.496 0.239-1.048 0.368-1.581 0.552-1.581 0.533-3.199 0.882-4.872 0.974-0.386 0.037-0.735 0.239-1.14 0.239h-207.304c-67.618 0-122.606-55.007-122.606-122.625v-30.776h-85.727c-67.618 0-122.625-55.007-122.625-122.625v-625.368c0-67.618 55.007-122.606 122.625-122.606h416.906c67.6 0 122.606 54.988 122.606 122.606v30.794h85.745c67.618 0 122.606 54.988 122.606 122.606v415.803c0 0.441-0.221 0.809-0.257 1.25zM633.421 897.235l251.041-251.041h-165.185c-47.34 0-85.856 38.516-85.856 85.856v165.185zM702.124 58.625c0-47.322-38.516-85.837-85.837-85.837h-416.906c-47.34 0-85.856 38.516-85.856 85.837v625.35c0 47.34 38.516 85.856 85.856 85.856h188.938v-191.181c0-67.618 54.988-122.606 122.588-122.606h191.199v-348.24l0.018-49.179zM676.128 492.812h-165.203c-47.322 0-85.819 38.497-85.819 85.837v165.185l251.022-251.022zM824.638 126.17h-85.745v348.258c0 0.423-0.221 0.809-0.257 1.232-0.11 1.563-0.386 3.070-0.901 4.578-0.221 0.607-0.386 1.213-0.662 1.838-0.882 1.93-2.004 3.769-3.567 5.332v0 0c0 0.018-0.018 0.037-0.018 0.037l-313.787 313.769c-1.599 1.581-3.456 2.703-5.423 3.603-0.533 0.239-1.066 0.386-1.618 0.57-1.581 0.552-3.162 0.882-4.835 0.974-0.386 0.037-0.735 0.239-1.14 0.239h-84.826v30.776c0 47.34 38.516 85.856 85.837 85.856h188.938v-191.199c0-67.618 55.007-122.625 122.625-122.625h191.181v-397.4c0.037-47.322-38.479-85.837-85.801-85.837z" />
<glyph unicode="&#xe931;" glyph-name="edit" d="M978.597 851.907l-62.685 62.685c-60.653 60.537-158.865 60.537-219.518 0l-611.502-611.48c-0.443-0.535-0.851-1.098-1.22-1.685-0.543-0.635-1.042-1.308-1.486-2.018-1.139-1.743-2.018-3.639-2.616-5.632-0.133-0.421-0.443-0.754-0.554-1.197l-78.406-329.255c-2.841-11.913 4.512-23.873 16.425-26.714 1.688-0.402 3.415-0.604 5.15-0.604 1.732 0.003 3.459 0.202 5.144 0.599l329.255 78.406c0.554 0.133 0.976 0.51 1.508 0.687 1.405 0.485 2.755 1.109 4.036 1.863 1.292 0.682 2.508 1.491 3.636 2.417 0.421 0.377 0.953 0.51 1.353 0.909l611.48 611.502c60.537 60.653 60.537 158.865 0 219.518v0zM900.213 616.69l-219.518 219.518 15.699 15.699 219.518-219.518-15.699-15.699zM853.183 569.659l-219.518 219.518 15.677 15.677 219.518-219.518-15.677-15.677zM210.261 271.669l-6.386-108.362c-0.718-12.226 8.609-22.72 20.832-23.437 0.868-0.050 1.738-0.050 2.605 0l108.362 6.386-5.388-91.932-237.013-56.432 22.994 22.994c8.509 8.808 8.265 22.844-0.543 31.353-8.592 8.298-22.215 8.298-30.81 0l-23.016-22.972 56.432 237.035 91.932 5.366zM380.997 160.136l331.051 331.14c8.808 8.509 9.052 22.545 0.543 31.353s-22.545 9.052-31.353 0.543c-0.186-0.177-0.366-0.36-0.543-0.543l-331.14-331.14-99.936-5.876 5.876 99.936 331.14 331.14c8.506 8.808 8.265 22.847-0.543 31.353-8.592 8.298-22.215 8.298-30.81 0l-331.184-331.118-66.521-3.836 444.735 444.735 219.518-219.518-444.735-444.735 3.903 66.565zM947.31 663.72l-219.518 219.518c43.33 43.236 113.482 43.236 156.811 0l62.707-62.707c43.219-43.347 43.189-113.501-0.067-156.811h0.067z" />
<glyph unicode="&#xe932;" glyph-name="eye" d="M512 753.2c-195.646 0-373.068-107.040-503.988-280.901-10.683-14.244-10.683-34.144 0-48.388 130.92-174.071 308.342-281.11 503.988-281.11s373.068 107.040 503.988 280.901c10.683 14.244 10.683 34.144 0 48.388-130.92 174.071-308.342 281.11-503.988 281.11zM526.035 233.083c-129.872-8.169-237.121 98.87-228.952 228.952 6.703 107.249 93.634 194.18 200.883 200.883 129.872 8.169 237.121-98.87 228.952-228.952-6.913-107.040-93.843-193.97-200.883-200.883zM519.541 332.372c-69.963-4.399-127.777 53.206-123.169 123.169 3.561 57.814 50.483 104.526 108.297 108.297 69.963 4.399 127.777-53.206 123.169-123.169-3.77-58.024-50.692-104.736-108.297-108.297z" />
<glyph unicode="&#xe933;" glyph-name="filter" d="M1021.037 902.134c-5.123 10.866-16.060 17.798-28.072 17.798h-961.929c-12.013 0-22.945-6.931-28.072-17.798-5.123-10.866-3.517-23.711 4.126-32.98l369.78-448.498v-413.556c0-10.738 5.549-20.711 14.669-26.372 4.999-3.099 10.672-4.664 16.366-4.664 4.705 0 9.426 1.072 13.78 3.228l207.763 102.975c10.556 5.23 17.235 15.985 17.251 27.766l0.406 310.61 369.8 448.514c7.647 9.265 9.257 22.114 4.134 32.976zM592.141 451.546c-4.573-5.545-7.080-12.509-7.088-19.701l-0.397-302.503-145.713-72.221v374.683c0 7.204-2.504 14.185-7.088 19.743l-335.008 406.319h830.302l-335.008-406.319z" />
<glyph unicode="&#xe934;" glyph-name="mail" d="M349.090 354.91h-186.18c-13.964 0-23.272-9.31-23.272-23.272s9.31-23.272 23.272-23.272h186.182c13.964 0 23.272 9.31 23.272 23.272s-9.31 23.272-23.274 23.272zM279.272 471.272h-186.182c-13.964 0-23.272-9.31-23.272-23.272s9.31-23.272 23.272-23.272h186.182c13.964 0 23.272 9.31 23.272 23.272s-9.308 23.272-23.272 23.272zM209.454 587.636h-186.182c-13.962 0-23.272-9.308-23.272-23.272s9.31-23.272 23.272-23.272h186.182c13.964 0 23.272 9.31 23.272 23.272s-9.308 23.272-23.272 23.272zM926.254 648.146c-6.982 9.31-23.272 11.636-32.582 4.654l-246.69-188.51c-25.6-18.618-60.51-18.618-86.11 0l-246.69 188.51c-9.31 6.982-25.6 6.982-32.582-4.654-6.982-9.31-6.982-25.6 4.654-32.582l249.018-188.51c20.946-16.29 46.546-23.272 69.818-23.272s51.2 6.982 69.818 23.272l246.692 188.51c9.31 6.982 11.636 23.272 4.654 32.582zM954.182 750.546h-744.728c-13.964 0-23.272-9.31-23.272-23.272s9.308-23.274 23.272-23.274h744.728c13.964 0 23.272-9.31 23.272-23.272v-465.454c0-13.964-9.31-23.272-23.272-23.272h-744.728c-13.964 0-23.272-9.31-23.272-23.272 0-13.964 9.31-23.272 23.272-23.272h744.728c39.564 0 69.818 30.254 69.818 69.818v465.452c0 39.562-30.254 69.818-69.818 69.818zM923.928 278.11l-139.636 139.636c-9.31 9.31-23.272 9.31-32.582 0s-9.31-23.272 0-32.582l139.636-139.636c4.654-4.654 11.636-6.982 16.29-6.982s11.636 2.328 16.292 6.982c9.308 9.308 9.308 23.272 0 32.582z" />
<glyph unicode="&#xe935;" glyph-name="rubbish-bin" d="M219.97-14.618c1.156-27.6 23.868-49.382 51.488-49.382h481.089c27.62 0 50.332 21.782 51.488 49.382l34.356 725.268h-652.778l34.356-725.268zM620.831 530.506c0 11.557 9.371 20.93 20.932 20.93h33.479c11.554 0 20.932-9.371 20.932-20.93v-414.362c0-11.559-9.371-20.93-20.932-20.93h-33.479c-11.557 0-20.932 9.366-20.932 20.93v414.362zM474.334 530.506c0 11.557 9.371 20.93 20.93 20.93h33.479c11.554 0 20.93-9.371 20.93-20.93v-414.362c0-11.559-9.368-20.93-20.93-20.93h-33.479c-11.557 0-20.93 9.366-20.93 20.93v414.362zM327.832 530.506c0 11.557 9.371 20.93 20.93 20.93h33.481c11.557 0 20.93-9.371 20.93-20.93v-414.362c0-11.559-9.371-20.93-20.93-20.93h-33.481c-11.557 0-20.93 9.366-20.93 20.93v414.362zM861.266 907.249h-221.943v41.959c0 5.959-4.831 10.792-10.792 10.792h-233.063c-5.959 0-10.789-4.833-10.789-10.792v-41.957h-221.945c-17.861 0-32.338-14.479-32.338-32.341v-101.595h763.209v101.592c0 17.861-14.477 32.341-32.338 32.341z" />
<glyph unicode="&#xe936;" glyph-name="search" d="M999.602-31.269l-287.271 298.755c73.273 73.485 118.667 174.791 118.667 286.517 0 223.878-182.118 405.996-405.996 405.996s-405.996-182.118-405.996-405.996 182.118-405.996 405.996-405.996c98.27 0 188.46 35.128 258.755 93.418l287.967-299.49c3.789-3.963 8.855-5.935 13.939-5.935 4.833 0 9.647 1.798 13.398 5.394 7.695 7.405 7.927 19.642 0.541 27.337zM425.001 186.674c-202.553 0-367.33 164.776-367.33 367.33s164.776 367.33 367.33 367.33 367.33-164.776 367.33-367.33-164.796-367.33-367.33-367.33z" />
<glyph unicode="&#xe937;" glyph-name="share" d="M693.029 232.221c-9.095-9.095-16.923-19.093-23.693-29.664l-299.936 182.062c7.932 19.857 12.428 41.449 12.428 64.101s-4.496 44.244-12.411 64.101l300.005 180.673c30.809-48.392 84.826-80.642 146.34-80.642 95.709 0 173.574 77.865 173.574 173.574s-77.865 173.574-173.574 173.574-173.574-77.865-173.574-173.574c0-21.801 4.218-42.595 11.577-61.827l-300.405-180.916c-31.035 47.282-84.461 78.612-145.125 78.612-95.709 0-173.574-77.865-173.574-173.574s77.865-173.574 173.574-173.574c60.664 0 114.073 31.33 145.108 78.612l300.353-182.305c-7.464-19.544-11.525-40.425-11.525-61.966 0-46.362 18.052-89.963 50.84-122.734 33.83-33.83 78.282-50.753 122.734-50.753s88.905 16.923 122.734 50.753c32.788 32.788 50.84 76.373 50.84 122.734s-18.052 89.963-50.84 122.734c-67.677 67.694-177.775 67.694-245.451 0zM815.763 925.285c76.564 0 138.859-62.296 138.859-138.859s-62.296-138.859-138.859-138.859-138.859 62.296-138.859 138.859 62.278 138.859 138.859 138.859zM208.254 309.861c-76.564 0-138.859 62.296-138.859 138.859s62.296 138.859 138.859 138.859 138.859-62.296 138.859-138.859-62.296-138.859-138.859-138.859zM913.937 11.296c-54.138-54.138-142.227-54.138-196.364 0-26.227 26.227-40.668 61.115-40.668 98.191s14.441 71.964 40.668 98.191c27.078 27.078 62.626 40.599 98.191 40.599s71.113-13.521 98.191-40.599c26.227-26.227 40.668-61.115 40.668-98.191s-14.441-71.964-40.686-98.191z" />
<glyph unicode="&#xe938;" glyph-name="calendar" d="M373.086 395.064c0 12.827-10.405 23.22-23.243 23.22h-81.108c-12.823 0-23.23-10.392-23.23-23.22v-81.097c0-12.844 10.407-23.24 23.23-23.24h81.108c12.838 0 23.243 10.396 23.243 23.24v81.097zM575.785 395.064c0 12.827-10.407 23.22-23.22 23.22h-81.118c-12.823 0-23.23-10.392-23.23-23.22v-81.097c0-12.844 10.407-23.24 23.23-23.24h81.118c12.813 0 23.22 10.396 23.22 23.24v81.097zM778.495 395.064c0 12.827-10.407 23.22-23.23 23.22h-81.108c-12.838 0-23.243-10.392-23.243-23.22v-81.097c0-12.844 10.405-23.24 23.243-23.24h81.108c12.823 0 23.23 10.396 23.23 23.24v81.097zM373.086 192.344c0 12.848-10.405 23.232-23.243 23.232h-81.108c-12.823 0-23.23-10.384-23.23-23.232v-81.083c0-12.836 10.407-23.23 23.23-23.23h81.108c12.838 0 23.243 10.396 23.243 23.23v81.083zM575.785 192.344c0 12.848-10.407 23.232-23.22 23.232h-81.118c-12.823 0-23.23-10.384-23.23-23.232v-81.083c0-12.836 10.407-23.23 23.23-23.23h81.118c12.813 0 23.22 10.396 23.22 23.23v81.083zM778.495 192.344c0 12.848-10.407 23.232-23.22 23.232h-81.118c-12.838 0-23.243-10.384-23.243-23.232v-81.083c0-12.836 10.405-23.23 23.243-23.23h81.118c12.813 0 23.22 10.396 23.22 23.23v81.083zM923.524 845.981v-123.87c0-55.988-45.42-101.105-101.399-101.105h-63.965c-55.984 0-102.005 45.117-102.005 101.105v124.314h-288.309v-124.314c0-55.988-46.020-101.105-101.995-101.105h-63.978c-55.977 0-101.395 45.117-101.395 101.105v123.87c-48.925-1.475-89.127-41.958-89.127-91.718v-725.935c0-50.695 41.090-92.331 91.785-92.331h817.728c50.62 0 91.785 41.721 91.785 92.331v725.935c0 49.76-40.2 90.243-89.125 91.718zM893.814 73.534c0-21.908-17.763-39.682-39.68-39.682h-686.015c-21.917 0-39.68 17.774-39.68 39.682v374.971c0 21.917 17.761 39.691 39.68 39.691h686.013c21.917 0 39.68-17.774 39.68-39.691l0.002-374.971zM201.648 687.413h63.271c19.205 0 34.776 15.548 34.776 34.753v203.069c0 19.207-15.571 34.765-34.776 34.765h-63.271c-19.207 0-34.776-15.559-34.776-34.765v-203.069c0-19.205 15.569-34.753 34.776-34.753zM757.346 687.413h63.271c19.192 0 34.763 15.548 34.763 34.753v203.069c0.002 19.207-15.569 34.765-34.763 34.765h-63.271c-19.202 0-34.774-15.559-34.774-34.765v-203.069c0-19.205 15.571-34.753 34.774-34.753z" />
<glyph unicode="&#xe939;" glyph-name="open-folder-with-document" d="M1017.711 344.661l-180.951-342.465c-8.853-17.028-33.948-35.039-53.327-35.039l-725.655-0.133c-15.33 0-30.028 6.077-40.861 16.918-10.832 10.843-16.918 25.525-16.918 40.861l0.117 563.479c0 31.866 25.833 57.723 57.702 57.754l53.056 0.050v-49.223h-35.495c-6.947 0-13.62-2.757-18.536-7.673-4.911-4.916-7.673-11.584-7.673-18.536l0.052-528.218c0-14.489 11.741-26.209 26.214-26.209h36.352l171.492 346.915c9.689 19.379 27.997 35.041 47.349 35.041h419.989l0.143 139.61c27.423-2.543 49.067-25.29 49.067-53.363v-86.249h192.622c22.748-0.233 41.902-22.727 25.259-53.519zM144.334 190.857c-1.567 172.682 0 690.741 0 690.741 0 26.138 21.257 47.38 47.369 47.38h379.351c6.077 0 11.874-2.543 15.98-7.015l122.642-133.25c3.676-4.013 5.737-9.266 5.737-14.708v-345.193h-39.788v315.386c0 5.457-4.431 9.889-9.894 9.889h-93.87c-10.986 0-19.92 8.918-19.92 19.884v105.325c0 5.458-4.431 9.889-9.894 9.889h-350.32c-4.185 0-7.592-3.405-7.592-7.587v-647.307l-30.446-61.597c0.002 0.010-9.198 0.684-9.355 18.163zM591.771 793.86h59.096l-59.096 64.237v-64.237zM613.323 713.563h-366.634c-13.508 0-24.473-10.976-24.473-24.484 0-13.498 10.976-24.478 24.473-24.478h366.645c13.508 0 24.506 10.989 24.506 24.478-0.022 13.498-11.017 24.484-24.516 24.484zM637.817 546.513c0 13.498-10.984 24.463-24.494 24.463h-366.634c-13.508 0-24.473-10.986-24.473-24.463 0-13.498 10.976-24.463 24.473-24.463h366.645c13.489-0.002 24.484 10.965 24.484 24.463zM222.2 402.98c0-13.496 10.981-24.463 24.478-24.463h8.791c15.474 43.127 53.831 48.926 53.831 48.926h-62.622c-13.477 0-24.478-10.965-24.478-24.463z" />
<glyph unicode="&#xe93a;" glyph-name="man" d="M797.914 249.196c-0.004 0.002-0.008 0.006-0.014 0.008-15.95 10.346-28.784 15.256-31.824 16.348l-92.56 38.572-65.258 43.064c-0.628 0.416-1.282 0.762-1.944 1.080v27.902c49.276 24.602 84.974 72.436 92.678 129.072 39.73 3.216 71.082 36.554 71.082 77.098 0 20.062-7.676 38.362-20.24 52.124v99.016c0.004 124.906-101.61 226.52-226.512 226.52h-17.534c-124.892 0-226.5-101.614-226.5-226.514v-97.91c-13.18-13.882-21.294-32.622-21.294-53.23 0-40.544 31.352-73.882 71.082-77.098 7.706-56.638 43.406-104.472 92.684-129.072v-26.094l-68.022-44.884c-0.922-0.204-1.84-0.476-2.742-0.852l-93.068-38.784c-4.654-1.666-32.004-12.176-59.158-37.82-26.88-25.384-58.922-71.056-58.922-144.5v-130.97c0-8.98 7.276-16.262 16.258-16.262h192.048c8.98 0 16.258 7.276 16.258 16.258 0 8.98-7.276 16.258-16.258 16.258h-50.082v120.67c0 8.98-7.276 16.258-16.258 16.258s-16.258-7.276-16.258-16.258v-120.67h-93.19v114.712c0 117.124 92.684 150.388 96.572 151.728 0.364 0.124 0.722 0.256 1.076 0.404l77.526 32.308 83.8-299.154h-32.304c-8.98 0-16.258-7.276-16.258-16.258s7.276-16.258 16.258-16.258h53.68c0.018 0 0.034-0.004 0.054-0.004 0.022 0 0.044 0.004 0.062 0.004h122.69c0.022 0 0.044-0.004 0.062-0.004s0.034 0.004 0.054 0.004h292.254c8.98 0 16.258 7.312 16.258 16.29v130.942c-0.002 95.69-54.024 145.048-86.236 165.956zM647.262 282.496l-48.97-100.65-60.744 44.708 64.22 66.662c3.566 3.7 5.016 8.652 4.402 13.378 0.086 0.678 0.146 1.366 0.146 2.066v0.852l40.946-27.016zM548.484 178.138l-12.774-34.020-43.786-0.002-14.374 34.31 35.27 25.958 35.664-26.246zM454.030 305.934c0.15 0.888 0.248 1.796 0.248 2.73v32.496c0 0.008 0 0.016 0 0.024v22.73c13.77-3.616 28.21-5.556 43.1-5.556h33.33c14.888 0 29.326 1.94 43.096 5.554v-52.856l-60.526-62.828-59.248 57.706zM737.564 582.344c-0.002-22.038-15.99-40.376-36.968-44.122v88.25c20.978-3.744 36.968-22.086 36.968-44.128zM327.478 538.222c-20.978 3.746-36.968 22.082-36.968 44.122 0 22.044 15.988 40.384 36.968 44.13v-88.252zM343.8 675.356c-0.024 0-0.048 0-0.070 0-0.56 0-1.112-0.028-1.658-0.084-0.172-0.018-0.336-0.054-0.508-0.078-0.37-0.050-0.742-0.096-1.104-0.17-0.234-0.048-0.458-0.12-0.688-0.176-0.29-0.074-0.584-0.134-0.868-0.224-0.264-0.082-0.518-0.188-0.776-0.282-0.238-0.086-0.482-0.162-0.714-0.26-0.296-0.126-0.578-0.274-0.868-0.416-0.182-0.092-0.372-0.17-0.552-0.266-0.28-0.152-0.546-0.328-0.818-0.494-0.174-0.108-0.354-0.204-0.522-0.318-0.258-0.174-0.498-0.368-0.746-0.554-0.166-0.128-0.342-0.244-0.506-0.378-0.224-0.182-0.428-0.384-0.64-0.578-0.172-0.156-0.352-0.306-0.516-0.468-0.196-0.196-0.376-0.408-0.56-0.614-0.162-0.18-0.334-0.352-0.488-0.538-0.172-0.206-0.322-0.428-0.484-0.642-0.152-0.204-0.312-0.398-0.456-0.61-0.14-0.208-0.262-0.43-0.394-0.644-0.14-0.232-0.292-0.456-0.422-0.694-0.114-0.212-0.21-0.436-0.316-0.652-0.124-0.256-0.258-0.506-0.368-0.768-0.092-0.212-0.16-0.436-0.24-0.652-0.104-0.28-0.216-0.552-0.308-0.838-0.070-0.218-0.118-0.448-0.176-0.672-0.078-0.292-0.164-0.584-0.228-0.882-0.050-0.236-0.074-0.482-0.112-0.72-0.048-0.294-0.104-0.588-0.136-0.888-0.026-0.252-0.028-0.51-0.042-0.764-0.014-0.232-0.034-0.462-0.040-0.698-5.412-0.55-10.654-1.672-15.682-3.284v77.438c0 106.966 87.022 193.994 193.986 193.994h17.534c106.974 0 194-87.028 194-194v-77.796c-5.348 1.802-10.944 3.052-16.738 3.642 0 0.068-0.008 0.134-0.010 0.202-0.008 0.358-0.022 0.716-0.054 1.068-0.020 0.214-0.054 0.424-0.082 0.638-0.042 0.31-0.082 0.62-0.14 0.928-0.050 0.258-0.112 0.51-0.176 0.764-0.060 0.252-0.12 0.502-0.192 0.75-0.084 0.288-0.184 0.57-0.284 0.852-0.074 0.206-0.144 0.412-0.226 0.614-0.12 0.296-0.254 0.588-0.39 0.876-0.086 0.182-0.17 0.364-0.262 0.542-0.148 0.282-0.306 0.554-0.468 0.828-0.106 0.18-0.212 0.362-0.326 0.538-0.162 0.25-0.334 0.49-0.51 0.73-0.136 0.188-0.274 0.378-0.418 0.56-0.17 0.21-0.344 0.412-0.522 0.616-0.174 0.198-0.344 0.392-0.526 0.58-0.17 0.176-0.346 0.34-0.522 0.508-0.206 0.196-0.414 0.388-0.63 0.572-0.178 0.15-0.362 0.292-0.546 0.436-0.23 0.178-0.458 0.356-0.696 0.52-0.2 0.138-0.406 0.266-0.612 0.396-0.234 0.148-0.468 0.294-0.71 0.432-0.238 0.134-0.488 0.256-0.732 0.378-0.222 0.108-0.438 0.222-0.666 0.32-0.292 0.13-0.594 0.24-0.898 0.354-0.196 0.072-0.386 0.15-0.586 0.214-0.336 0.11-0.678 0.2-1.024 0.288-0.146 0.036-0.286 0.088-0.434 0.122-63.624 14.472-82.822 94.614-83.002 95.39-1.41 6.23-6.34 11.058-12.598 12.336-6.258 1.286-12.686-1.22-16.432-6.4-72.31-99.962-229.52-100.924-232.088-100.924-0.002 0-0.010 0-0.014 0zM359.994 528.248v115.158c41.566 2.554 152.006 16.386 223.044 90.746 12.254-28.828 37.63-70.924 85.042-87.282v-118.622c0-75.75-61.626-137.378-137.372-137.378h-33.33c-75.756 0.002-137.384 61.63-137.384 137.378zM421.762 311.122v-2.46c0-1.722 0.274-3.38 0.768-4.936-1.786-5.67-0.404-12.11 4.144-16.542l61.892-60.284-61.218-45.056-48.968 100.65 43.382 28.628zM448.498 27.81l-31.884 113.824c0.254-0.076 0.5-0.17 0.758-0.232 1.288-0.316 2.592-0.472 3.894-0.472 3.434 0 6.818 1.088 9.636 3.164l19.704 14.5 13.712-32.734-15.82-98.050zM471.868-31.48l23.084 143.080h38.174l23.082-143.080h-84.34zM563.708 126.184l11.988 31.924 19.044-14.016c2.82-2.076 6.202-3.164 9.636-3.164 1.3 0 2.606 0.156 3.894 0.472 1.35 0.334 2.628 0.852 3.826 1.5l-32.414-115.714-15.974 98.998zM851.634-31.48v0h-93.198v120.67c0 8.98-7.276 16.258-16.258 16.258-8.98 0-16.258-7.276-16.258-16.258v-120.67h-128.908l83.342 297.532 73.63-30.684c0.316-0.132 0.696-0.276 1.020-0.386 0.108-0.040 10.978-3.83 25.2-13.056 0.002-0.002 0.004-0.002 0.006-0.004 32.584-21.152 71.424-62.382 71.424-138.688v-114.714zM533.054 513.394c8.98 0 16.258 7.276 16.258 16.258 0 8.98-7.276 16.258-16.258 16.258h-12v37.646c0 8.978-7.276 16.258-16.258 16.258-8.98 0-16.258-7.28-16.258-16.258v-53.904c0-8.98 7.276-16.258 16.258-16.258h28.258z" />
<glyph unicode="&#xe93b;" glyph-name="woman" d="M822.82 225.541c-26.942 25.444-54.080 35.876-58.708 37.534l-92.346 38.48c-0.738 0.308-1.494 0.56-2.268 0.754l-63.88 16.102v54.196c0.936 0.466 1.86 0.946 2.788 1.43 1.884-1.266 4.056-2.164 6.442-2.546 40.336-6.438 77.24-16.872 106.72-30.172 2.158-0.972 4.416-1.434 6.638-1.434 5.652 0 11.044 3.008 13.984 8.116 0.64 0.592 1.254 1.224 1.806 1.938 52.112 67.222 80.81 154.376 80.81 245.41 0 111.28-42.43 215.036-116.408 284.661-0.008 0.008-0.022 0.018-0.030 0.026-54.8 51.566-123.77 79.964-194.216 79.964-171.292 0-310.649-163.584-310.649-364.651 0-93.040 29.816-181.612 83.952-249.4 0.112-0.138 0.238-0.258 0.352-0.394 0.106-0.122 0.214-0.238 0.322-0.356 0.416-0.46 0.852-0.89 1.306-1.292 0.082-0.072 0.162-0.146 0.246-0.22 1.74-1.468 3.728-2.516 5.834-3.134 0.048-0.016 0.094-0.028 0.142-0.042 0.68-0.194 1.366-0.342 2.066-0.446 0.044-0.008 0.086-0.018 0.132-0.024 0.746-0.104 1.494-0.174 2.246-0.174 0.164 0 0.328 0.036 0.494 0.042 0.548 0.018 1.096 0.060 1.642 0.136 0.312 0.044 0.618 0.088 0.928 0.146 0.634 0.122 1.264 0.276 1.888 0.478 0.314 0.102 0.62 0.23 0.93 0.354 0.252 0.1 0.508 0.182 0.758 0.296 29.834 13.458 67.224 23.97 108.126 30.396 2.052 0.322 3.946 1.030 5.636 2.018 0.638-0.33 1.276-0.664 1.92-0.986v-54.182l-67.736-16.212c-0.838-0.2-1.66-0.468-2.456-0.8l-92.346-38.48c-4.624-1.658-31.762-12.090-58.708-37.534-26.676-25.192-58.474-70.52-58.474-143.408v-129.952c0-8.932 7.24-16.172 16.168-16.172h194.452c8.93 0 16.168 7.236 16.168 16.168 0 8.93-7.24 16.168-16.168 16.168h-53.55v119.698c0 8.932-7.24 16.168-16.168 16.168-8.93 0-16.168-7.236-16.168-16.168v-119.698h-92.398v113.788c0 116.19 91.938 149.188 95.796 150.516 0.36 0.122 0.718 0.254 1.070 0.402l76.886 32.040 10.418-37.2c0.002-0.010 0.004-0.022 0.008-0.032l72.696-259.517h-32.002c-8.93 0-16.168-7.24-16.168-16.168 0-8.932 7.24-16.168 16.168-16.168h53.264c0.018 0 0.034-0.004 0.052-0.004 0.020 0 0.040 0.004 0.060 0.004h121.744c0.020 0 0.040-0.004 0.060-0.004 0.018 0 0.034 0.004 0.050 0.004h289.991c8.932 0 16.168 7.272 16.168 16.2v129.928c-0.002 72.89-31.802 118.216-58.48 143.41zM305.287 375.845c-44.856 60.74-69.444 138.166-69.444 219.502-0.004 183.242 124.85 332.317 278.309 332.317 63.090 0 122.594-24.622 172.082-71.202 67.512-63.542 106.234-158.714 106.234-261.111 0-81.156-24.604-158.78-69.43-219.508-23.34 9.442-50.092 17.3-78.85 23.176 28.518 26.004 48.068 61.656 53.524 101.726 39.428 3.21 70.532 36.3 70.532 76.536 0 39.706-30.276 72.47-68.952 76.422-0.126 7.568-5.484 14.058-12.926 15.574-110.142 22.452-158.592 88.072-159.036 88.684-2.778 3.908-7.148 6.384-11.93 6.752-4.78 0.368-9.482-1.4-12.826-4.838-62.856-64.514-160.49-90.536-161.458-90.788-7.040-1.826-11.964-8.13-12.088-15.38-38.684-3.946-68.966-36.716-68.966-76.424 0-40.24 31.108-73.328 70.536-76.536 5.458-40.074 25.010-75.726 53.532-101.732-28.762-5.88-55.504-13.728-78.844-23.17zM699.307 533.543v87.482c20.776-3.736 36.604-21.908 36.604-43.746 0-21.832-15.828-40.004-36.604-43.736zM329.005 621.027v-87.486c-20.776 3.732-36.606 21.904-36.606 43.738 0 21.842 15.83 40.014 36.606 43.748zM361.341 523.601v117.734c27.692 8.746 96.942 34.152 151.668 83.714 20.972-22.172 70.066-64.434 153.96-84.588v-116.86c0-75.144-61.132-136.28-136.274-136.28h-33.074c-75.144 0.002-136.28 61.136-136.28 136.28zM379.577 275.067l62.776 15.020c7.274 1.742 12.404 8.244 12.404 15.724v54.714c13.694-3.602 28.056-5.538 42.866-5.538h33.074c14.706 0 28.976 1.904 42.586 5.458v-54.634c0-7.41 5.034-13.868 12.216-15.676l63.008-15.88-8.846-31.58c-56.232-32.91-115.648-42.816-176.696-29.432-37.022 8.116-63.948 22.882-74.234 29.148l-9.154 32.676zM562.819-31.654h-97.326l-64.84 231.478c14.342-6.37 32.6-13.056 53.95-17.85 17.080-3.838 37.338-6.672 59.916-6.672 33.57 0 72.264 6.276 113.226 24.838l-64.926-231.794zM848.962-31.656h-92.402v119.698c0 8.932-7.236 16.168-16.168 16.168s-16.168-7.236-16.168-16.168v-119.698h-127.828l82.672 295.137 73.022-30.428c0.312-0.132 0.69-0.272 1.014-0.384 3.912-1.348 95.856-34.346 95.856-150.536v-113.79zM511.179 500.465h27.542c8.932 0 16.168 7.238 16.168 16.168s-7.236 16.168-16.168 16.168h-11.374v36.372c0 8.932-7.236 16.168-16.168 16.168-8.93 0-16.168-7.236-16.168-16.168v-52.54c0-8.93 7.238-16.168 16.168-16.168z" />
<glyph unicode="&#xe93c;" glyph-name="right_quote" d="M354.468 881.226h-236.312c-32.825 0-60.72-11.488-83.699-34.459-22.968-22.975-34.457-50.87-34.457-83.697v-236.303c0-32.825 11.482-60.716 34.457-83.686 22.977-22.968 50.881-34.461 83.699-34.461h137.846c16.405 0 30.357-5.746 41.845-17.23 11.488-11.478 17.23-25.434 17.23-41.852v-19.681c0-43.49-15.388-80.606-46.154-111.381-30.769-30.76-67.894-46.145-111.388-46.145h-39.38c-10.674 0-19.901-3.908-27.699-11.697-7.792-7.79-11.691-17.024-11.691-27.691v-78.779c0-10.65 3.899-19.901 11.691-27.693 7.805-7.788 17.024-11.697 27.699-11.697h39.382c42.671 0 83.389 8.32 122.161 24.93 38.77 16.612 72.306 39.080 100.615 67.389 28.303 28.311 50.767 61.841 67.381 100.613 16.612 38.77 24.921 79.485 24.921 122.15v433.225c0 32.827-11.488 60.72-34.459 83.691s-50.872 34.457-83.689 34.457zM989.531 846.767c-22.968 22.97-50.866 34.459-83.691 34.459h-236.303c-32.825 0-60.72-11.488-83.691-34.459-22.968-22.977-34.452-50.87-34.452-83.697v-236.303c0-32.825 11.484-60.716 34.452-83.686 22.97-22.968 50.868-34.461 83.691-34.461h137.846c16.405 0 30.368-5.746 41.854-17.23 11.475-11.484 17.23-25.434 17.23-41.852v-19.681c0-43.49-15.388-80.606-46.161-111.381-30.766-30.76-67.883-46.145-111.381-46.145h-39.388c-10.665 0-19.901-3.908-27.691-11.697-7.796-7.79-11.7-17.024-11.7-27.691v-78.779c0-10.65 3.903-19.901 11.7-27.693 7.788-7.788 17.024-11.697 27.691-11.697h39.388c42.664 0 83.38 8.32 122.156 24.93 38.763 16.612 72.295 39.080 100.606 67.389 28.309 28.311 50.786 61.85 67.389 100.613 16.61 38.761 24.923 79.485 24.923 122.15v433.225c-0.006 32.827-11.484 60.72-34.47 83.689z" />
</font>
</defs>
</svg>
